<svg width="365" height="189" viewBox="0 0 365 189" fill="none" xmlns="http://www.w3.org/2000/svg">
<path d="M273.42 73.73C273.42 73.3177 273.471 72.9055 273.574 72.4933C273.712 72.1154 273.935 71.7548 274.244 71.4112C274.554 71.1021 274.983 70.8444 275.533 70.6383C276.082 70.3979 276.786 70.2605 277.645 70.2261V42.2984C275.893 42.2297 274.742 41.869 274.193 41.2163C273.678 40.5293 273.42 39.6877 273.42 38.6915C273.42 38.2793 273.471 37.8671 273.574 37.4549C273.712 37.0083 273.952 36.6304 274.296 36.3213C274.639 35.9777 275.12 35.7029 275.739 35.4968C276.357 35.2907 277.147 35.1877 278.109 35.1877H297.174C298.136 35.1877 298.926 35.2907 299.544 35.4968C300.162 35.7029 300.643 35.9777 300.987 36.3213C301.33 36.6304 301.554 37.0083 301.657 37.4549C301.794 37.8671 301.863 38.2793 301.863 38.6915C301.863 39.1724 301.794 39.6362 301.657 40.0827C301.554 40.495 301.348 40.8728 301.038 41.2163C300.729 41.5255 300.3 41.7831 299.75 41.9892C299.201 42.161 298.496 42.2641 297.638 42.2984V70.2261C298.496 70.2605 299.201 70.3979 299.75 70.6383C300.3 70.8444 300.729 71.1021 301.038 71.4112C301.348 71.7548 301.554 72.1154 301.657 72.4933C301.794 72.9055 301.863 73.3177 301.863 73.73C301.863 74.2452 301.794 74.709 301.657 75.1212C301.554 75.5678 301.33 75.9456 300.987 76.2548C300.643 76.5983 300.162 76.8559 299.544 77.0277C298.926 77.2338 298.136 77.3369 297.174 77.3369H278.109C277.147 77.3369 276.357 77.2338 275.739 77.0277C275.12 76.8559 274.639 76.5983 274.296 76.2548C273.952 75.9456 273.712 75.5678 273.574 75.1212C273.471 74.709 273.42 74.2452 273.42 73.73ZM307.84 39.0522C307.84 37.3346 308.252 36.1667 309.077 35.5484C309.935 34.8957 310.915 34.5693 312.014 34.5693C312.563 34.5693 313.079 34.638 313.56 34.7754C314.075 34.9129 314.521 35.1533 314.899 35.4968C315.277 35.8403 315.586 36.3041 315.827 36.8881C316.067 37.472 316.187 38.1934 316.187 39.0522V74.2452C316.187 75.1384 316.067 75.8769 315.827 76.4609C315.586 77.0449 315.277 77.5086 314.899 77.8521C314.521 78.1956 314.075 78.4361 313.56 78.5735C313.079 78.7109 312.563 78.7796 312.014 78.7796C311.464 78.7796 310.932 78.7109 310.416 78.5735C309.935 78.4361 309.489 78.1956 309.077 77.8521C308.699 77.5086 308.39 77.0449 308.149 76.4609C307.943 75.8769 307.84 75.1384 307.84 74.2452V39.0522ZM285.632 70.2261H289.651V42.2984H285.632V70.2261Z" fill="white"/>
<path d="M231.518 42.2984C230.556 42.2984 229.766 42.2125 229.148 42.0408C228.53 41.8347 228.049 41.577 227.705 41.2679C227.362 40.9244 227.121 40.5465 226.984 40.1343C226.881 39.6877 226.829 39.2068 226.829 38.6915C226.829 38.2793 226.881 37.8671 226.984 37.4549C227.121 37.0083 227.362 36.6304 227.705 36.3213C228.049 35.9777 228.53 35.7029 229.148 35.4968C229.766 35.2907 230.556 35.1877 231.518 35.1877H244.812C245.74 35.1877 246.461 35.2907 246.976 35.4968C247.492 35.6686 247.887 35.9262 248.161 36.2697C248.436 36.5789 248.608 36.9739 248.677 37.4549C248.745 37.9358 248.78 38.4854 248.78 39.1037V59.8176C248.78 60.5047 248.728 61.3463 248.625 62.3425C248.522 63.3387 248.35 64.4207 248.11 65.5887C247.869 66.7566 247.543 67.9589 247.131 69.1956C246.753 70.3979 246.272 71.5487 245.688 72.6479C245.104 73.7815 244.417 74.7949 243.627 75.688C242.871 76.5811 241.995 77.2853 240.999 77.8006C239.969 78.3159 239.024 78.4189 238.165 78.1098C237.341 77.8006 236.654 77.354 236.104 76.7701C235.761 76.4609 235.52 76.0659 235.383 75.5849C235.245 75.104 235.194 74.6059 235.228 74.0907C235.263 73.5754 235.366 73.0429 235.537 72.4933C235.743 71.978 236.001 71.4971 236.31 71.0506C237.032 69.9857 237.633 68.9895 238.114 68.062C238.595 67.1345 238.972 66.207 239.247 65.2795C239.556 64.352 239.78 63.3902 239.917 62.394C240.055 61.3978 240.14 60.3157 240.175 59.1478H230.9C229.938 59.1478 229.148 59.0619 228.53 58.8901C227.911 58.684 227.43 58.4264 227.087 58.1172C226.743 57.7737 226.503 57.3959 226.366 56.9836C226.262 56.5371 226.211 56.0562 226.211 55.5409C226.211 55.1287 226.262 54.7164 226.366 54.3042C226.503 53.8577 226.743 53.4798 227.087 53.1706C227.43 52.8271 227.911 52.5523 228.53 52.3462C229.148 52.1401 229.938 52.037 230.9 52.037H240.226V42.2984H231.518ZM261.455 58.684H255.736C254.774 58.684 254.001 58.5982 253.417 58.4264C252.833 58.2203 252.37 57.9627 252.026 57.6535C251.717 57.31 251.511 56.9321 251.408 56.5199C251.305 56.0733 251.253 55.5924 251.253 55.0771C251.253 54.6649 251.305 54.2527 251.408 53.8405C251.511 53.3939 251.717 53.0161 252.026 52.7069C252.37 52.3634 252.833 52.0886 253.417 51.8825C254.001 51.6763 254.774 51.5733 255.736 51.5733H261.455V39.0522C261.455 37.3346 261.868 36.1667 262.692 35.5484C263.551 34.8957 264.53 34.5693 265.629 34.5693C266.179 34.5693 266.694 34.638 267.175 34.7754C267.69 34.9129 268.137 35.1533 268.515 35.4968C268.893 35.8403 269.202 36.3041 269.442 36.8881C269.683 37.472 269.803 38.1934 269.803 39.0522V74.2452C269.803 75.1384 269.683 75.8769 269.442 76.4609C269.202 77.0449 268.893 77.5086 268.515 77.8521C268.137 78.1956 267.69 78.4361 267.175 78.5735C266.694 78.7109 266.179 78.7796 265.629 78.7796C265.08 78.7796 264.547 78.7109 264.032 78.5735C263.551 78.4361 263.104 78.1956 262.692 77.8521C262.314 77.5086 262.005 77.0449 261.765 76.4609C261.559 75.8769 261.455 75.1384 261.455 74.2452V58.684Z" fill="white"/>
<path d="M202.237 50.2851C201.069 51.9684 199.867 53.8062 198.63 55.7985C197.428 57.7909 196.277 59.6116 195.178 61.2604C194.697 61.9131 194.182 62.3597 193.632 62.6001C193.082 62.8062 192.481 62.9093 191.828 62.9093C191.279 62.9093 190.695 62.7891 190.077 62.5486C189.458 62.3081 188.96 61.8616 188.582 61.2089L181.626 50.0275V71.4113C181.626 72.8197 181.162 73.833 180.235 74.4514C179.342 75.0697 178.328 75.3789 177.195 75.3789C176.611 75.3789 176.044 75.293 175.494 75.1212C174.979 74.9838 174.515 74.7434 174.103 74.3998C173.691 74.0907 173.347 73.6785 173.073 73.1632C172.832 72.6823 172.712 72.0983 172.712 71.4113V40.1858C172.712 38.9148 173.158 37.953 174.052 37.3003C174.979 36.6476 176.027 36.3213 177.195 36.3213C177.916 36.3213 178.569 36.3728 179.153 36.4759C179.737 36.5446 180.269 36.7163 180.75 36.9911C181.231 37.2316 181.695 37.5751 182.141 38.0217C182.588 38.4683 183.035 39.0351 183.481 39.7221L191.828 52.81L200.485 39.7221C201.344 38.4511 202.203 37.5751 203.061 37.0942C203.955 36.5789 205.157 36.3213 206.668 36.3213C207.905 36.3213 208.953 36.6476 209.811 37.3003C210.67 37.953 211.1 38.9148 211.1 40.1858V71.4113C211.1 72.0983 210.962 72.6823 210.687 73.1632C210.447 73.6785 210.121 74.0907 209.708 74.3998C209.296 74.7434 208.815 74.9838 208.266 75.1212C207.75 75.293 207.218 75.3789 206.668 75.3789C206.119 75.3789 205.569 75.293 205.019 75.1212C204.504 74.9838 204.04 74.7434 203.628 74.3998C203.216 74.0907 202.872 73.6785 202.598 73.1632C202.357 72.6823 202.237 72.0983 202.237 71.4113V50.2851Z" fill="white"/>
<path d="M140.001 75.1728C139.349 74.9667 138.816 74.6919 138.404 74.3484C137.992 74.0049 137.682 73.6098 137.476 73.1633C137.305 72.7167 137.219 72.2701 137.219 71.8236C137.219 71.377 137.287 70.9476 137.425 70.5354L148.606 38.9493C148.847 38.2622 149.345 37.6095 150.101 36.9912C150.891 36.3385 152.059 36.0122 153.604 36.0122C155.15 36.0122 156.318 36.3385 157.108 36.9912C157.898 37.6095 158.414 38.2622 158.654 38.9493L169.835 70.6384C170.248 71.8407 170.23 72.8026 169.784 73.524C169.337 74.2453 168.564 74.7606 167.465 75.0698C166.16 75.4476 165.061 75.4133 164.167 74.9667C163.309 74.5202 162.708 73.7816 162.364 72.7511L159.994 65.6918H147.524L145.051 73.0087C144.776 73.8331 144.175 74.4686 143.247 74.9152C142.32 75.3618 141.238 75.4476 140.001 75.1728ZM153.759 47.1421L149.585 59.4571H157.881L153.759 47.1421Z" fill="white"/>
<path d="M108.721 39.0522C108.721 38.1591 109.064 37.4892 109.751 37.0427C110.438 36.5617 111.331 36.3213 112.431 36.3213H124.591C126.755 36.3213 128.799 36.5446 130.723 36.9911C132.681 37.4034 134.398 38.0904 135.876 39.0522C137.353 40.0141 138.521 41.2679 139.379 42.8137C140.238 44.3595 140.668 46.2317 140.668 48.4302V48.7393C140.668 50.9378 140.255 52.81 139.431 54.3558C138.606 55.9016 137.49 57.1554 136.082 58.1173C134.673 59.0791 133.007 59.7833 131.083 60.2299C129.194 60.6764 127.167 60.8997 125.003 60.8997H117.686V71.4113C117.686 72.0983 117.566 72.6823 117.326 73.1632C117.085 73.6785 116.759 74.0907 116.347 74.3998C115.935 74.7434 115.454 74.9838 114.904 75.1212C114.389 75.293 113.856 75.3789 113.307 75.3789C112.723 75.3789 112.156 75.293 111.606 75.1212C111.057 74.9838 110.559 74.7434 110.112 74.3998C109.7 74.0907 109.356 73.6785 109.081 73.1632C108.841 72.6823 108.721 72.0983 108.721 71.4113V39.0522ZM117.686 42.6591V55.0256H125.003C127.099 55.0256 128.748 54.5447 129.95 53.5829C131.152 52.621 131.753 51.1268 131.753 49.1V48.3786C131.753 46.3863 131.032 44.9435 129.589 44.0504C128.181 43.1229 126.395 42.6591 124.23 42.6591H117.686Z" fill="white"/>
<path d="M90.7841 71.0506C90.7841 71.875 90.6638 72.562 90.4234 73.1117C90.1829 73.6613 89.8566 74.0907 89.4444 74.3998C89.0322 74.7434 88.5684 74.9838 88.0531 75.1212C87.5379 75.293 87.0054 75.3789 86.4558 75.3789C85.3222 75.3789 84.3088 75.1899 83.4157 74.8121C82.5226 74.4685 81.8184 73.9017 81.3031 73.1117L67.3908 52.0371V71.4113C67.3908 72.8197 66.9442 73.833 66.0511 74.4514C65.1579 75.0697 64.1617 75.3789 63.0625 75.3789C62.4785 75.3789 61.9117 75.293 61.3621 75.1212C60.8125 74.9838 60.3144 74.7434 59.8678 74.3998C59.4556 74.0907 59.1121 73.6785 58.8373 73.1632C58.5968 72.6823 58.4766 72.0983 58.4766 71.4113V39.9282C58.4766 39.516 58.5624 39.1038 58.7342 38.6915C58.9403 38.2793 59.2323 37.9015 59.6102 37.5579C59.988 37.1801 60.4518 36.8881 61.0014 36.682C61.5854 36.4415 62.2724 36.3213 63.0625 36.3213C63.7839 36.3213 64.4194 36.3728 64.969 36.4759C65.5186 36.5789 66.0167 36.7679 66.4633 37.0427C66.9098 37.2831 67.3392 37.6266 67.7514 38.0732C68.1637 38.5198 68.5931 39.0866 69.0396 39.7736L81.8699 59.5085V40.1343C81.8699 38.8289 82.3336 37.8671 83.2611 37.2488C84.223 36.6305 85.2878 36.3213 86.4558 36.3213C87.0054 36.3213 87.5379 36.4072 88.0531 36.5789C88.5684 36.7163 89.0322 36.9396 89.4444 37.2488C89.8566 37.5579 90.1829 37.953 90.4234 38.4339C90.6638 38.9148 90.7841 39.4816 90.7841 40.1343V71.0506Z" fill="white"/>
<path d="M25.7659 75.1728C25.1132 74.9667 24.5807 74.6919 24.1685 74.3484C23.7563 74.0049 23.4471 73.6098 23.241 73.1633C23.0693 72.7167 22.9834 72.2701 22.9834 71.8236C22.9834 71.377 23.0521 70.9476 23.1895 70.5354L34.3709 38.9493C34.6114 38.2622 35.1095 37.6095 35.8652 36.9912C36.6553 36.3385 37.8232 36.0122 39.369 36.0122C40.9148 36.0122 42.0828 36.3385 42.8729 36.9912C43.663 37.6095 44.1782 38.2622 44.4187 38.9493L55.6001 70.6384C56.0123 71.8407 55.9951 72.8026 55.5486 73.524C55.102 74.2453 54.3291 74.7606 53.2298 75.0698C51.9245 75.4476 50.8252 75.4133 49.9321 74.9667C49.0733 74.5202 48.4722 73.7816 48.1286 72.7511L45.7584 65.6918H33.2888L30.8155 73.0087C30.5407 73.8331 29.9396 74.4686 29.0121 74.9152C28.0846 75.3618 27.0025 75.4476 25.7659 75.1728ZM39.5236 47.1421L35.3499 59.4571H43.6458L39.5236 47.1421Z" fill="white"/>
<path d="M238.863 110.883C238.548 110.783 238.291 110.65 238.091 110.484C237.892 110.318 237.743 110.127 237.643 109.911C237.56 109.696 237.519 109.48 237.519 109.264C237.519 109.048 237.552 108.841 237.618 108.641L243.023 93.3747C243.139 93.0426 243.379 92.7271 243.745 92.4283C244.127 92.1128 244.691 91.9551 245.438 91.9551C246.185 91.9551 246.75 92.1128 247.132 92.4283C247.514 92.7271 247.763 93.0426 247.879 93.3747L253.283 108.691C253.483 109.272 253.474 109.737 253.258 110.086C253.043 110.434 252.669 110.683 252.138 110.833C251.507 111.016 250.975 110.999 250.544 110.783C250.129 110.567 249.838 110.21 249.672 109.712L248.526 106.3H242.5L241.304 109.837C241.171 110.235 240.881 110.542 240.432 110.758C239.984 110.974 239.461 111.016 238.863 110.883ZM245.513 97.3345L243.496 103.287H247.505L245.513 97.3345Z" fill="white"/>
<path d="M225.46 92.1045C226.522 92.1045 227.518 92.2124 228.448 92.4283C229.378 92.6275 230.183 92.9679 230.864 93.4494C231.561 93.9142 232.101 94.5203 232.483 95.2674C232.881 96.0145 233.081 96.9194 233.081 97.982V105.08C233.081 106.159 232.881 107.072 232.483 107.819C232.101 108.567 231.561 109.173 230.864 109.637C230.183 110.119 229.378 110.459 228.448 110.659C227.518 110.874 226.522 110.982 225.46 110.982H220.379C219.748 110.982 219.267 110.816 218.935 110.484C218.603 110.169 218.437 109.737 218.437 109.189V93.798C218.437 93.3331 218.619 92.9347 218.984 92.6026C219.35 92.2705 219.823 92.1045 220.404 92.1045H225.46ZM222.745 107.869H225.46C226.522 107.869 227.336 107.645 227.9 107.197C228.481 106.749 228.772 106.043 228.772 105.08V97.982C228.772 97.019 228.481 96.3134 227.9 95.8651C227.336 95.4002 226.522 95.1678 225.46 95.1678H222.745V107.869Z" fill="white"/>
<path d="M212.402 108.89C212.402 109.289 212.344 109.621 212.228 109.887C212.112 110.152 211.954 110.36 211.755 110.509C211.556 110.675 211.331 110.791 211.082 110.858C210.833 110.941 210.576 110.982 210.31 110.982C209.762 110.982 209.273 110.891 208.841 110.708C208.409 110.542 208.069 110.268 207.82 109.887L201.096 99.7005V109.065C201.096 109.745 200.88 110.235 200.448 110.534C200.016 110.833 199.535 110.982 199.004 110.982C198.721 110.982 198.447 110.941 198.182 110.858C197.916 110.791 197.675 110.675 197.46 110.509C197.26 110.36 197.094 110.16 196.961 109.911C196.845 109.679 196.787 109.397 196.787 109.065V93.8478C196.787 93.6486 196.829 93.4494 196.912 93.2501C197.011 93.0509 197.152 92.8682 197.335 92.7022C197.518 92.5196 197.742 92.3784 198.007 92.2788C198.29 92.1626 198.622 92.1045 199.004 92.1045C199.352 92.1045 199.659 92.1294 199.925 92.1792C200.191 92.229 200.432 92.3203 200.647 92.4532C200.863 92.5694 201.071 92.7354 201.27 92.9513C201.469 93.1671 201.677 93.441 201.893 93.7731L208.094 103.312V93.9474C208.094 93.3165 208.318 92.8516 208.766 92.5528C209.231 92.2539 209.746 92.1045 210.31 92.1045C210.576 92.1045 210.833 92.146 211.082 92.229C211.331 92.2954 211.556 92.4033 211.755 92.5528C211.954 92.7022 212.112 92.8931 212.228 93.1256C212.344 93.358 212.402 93.632 212.402 93.9474V108.89Z" fill="white"/>
<path d="M186.423 93.9474C186.423 93.3165 186.647 92.8516 187.095 92.5528C187.56 92.2539 188.075 92.1045 188.639 92.1045C188.905 92.1045 189.162 92.146 189.411 92.229C189.677 92.2954 189.91 92.4033 190.109 92.5528C190.308 92.7022 190.466 92.8931 190.582 93.1256C190.698 93.358 190.756 93.632 190.756 93.9474V109.065C190.756 109.397 190.698 109.679 190.582 109.911C190.466 110.16 190.308 110.36 190.109 110.509C189.91 110.675 189.677 110.791 189.411 110.858C189.162 110.941 188.905 110.982 188.639 110.982C188.357 110.982 188.083 110.941 187.818 110.858C187.552 110.791 187.311 110.675 187.095 110.509C186.896 110.36 186.73 110.16 186.597 109.911C186.481 109.679 186.423 109.397 186.423 109.065V93.9474Z" fill="white"/>
<path d="M168.784 93.9474C168.784 93.3165 169.008 92.8516 169.457 92.5528C169.905 92.2539 170.411 92.1045 170.976 92.1045C171.241 92.1045 171.499 92.146 171.748 92.229C172.013 92.2954 172.246 92.4033 172.445 92.5528C172.644 92.7022 172.802 92.8931 172.918 93.1256C173.035 93.358 173.093 93.632 173.093 93.9474V107.869H180.265C180.963 107.869 181.444 108.027 181.71 108.342C181.992 108.658 182.133 109.031 182.133 109.463C182.133 109.629 182.108 109.795 182.058 109.961C182.009 110.144 181.909 110.31 181.76 110.459C181.627 110.609 181.436 110.733 181.187 110.833C180.954 110.933 180.647 110.982 180.265 110.982H170.826C170.195 110.982 169.697 110.833 169.332 110.534C168.967 110.235 168.784 109.812 168.784 109.264V93.9474Z" fill="white"/>
<path d="M139.78 110.883C139.465 110.783 139.208 110.65 139.008 110.484C138.809 110.318 138.66 110.127 138.56 109.911C138.477 109.696 138.436 109.48 138.436 109.264C138.436 109.048 138.469 108.841 138.535 108.641L143.94 93.3747C144.056 93.0426 144.296 92.7271 144.662 92.4283C145.044 92.1128 145.608 91.9551 146.355 91.9551C147.102 91.9551 147.667 92.1128 148.049 92.4283C148.431 92.7271 148.68 93.0426 148.796 93.3747L154.2 108.691C154.4 109.272 154.391 109.737 154.175 110.086C153.96 110.434 153.586 110.683 153.055 110.833C152.424 111.016 151.892 110.999 151.461 110.783C151.046 110.567 150.755 110.21 150.589 109.712L149.443 106.3H143.417L142.221 109.837C142.088 110.235 141.798 110.542 141.349 110.758C140.901 110.974 140.378 111.016 139.78 110.883ZM146.43 97.3345L144.413 103.287H148.422L146.43 97.3345Z" fill="white"/>
<path d="M133.151 98.5798C132.62 98.5798 132.171 98.4469 131.806 98.1813C131.441 97.899 131.242 97.5421 131.209 97.1104C131.142 96.4794 130.868 95.9814 130.387 95.6161C129.905 95.2342 129.191 95.0433 128.245 95.0433C126.385 95.0433 125.414 96.0063 125.331 97.9322C125.281 99.2107 125.256 100.448 125.256 101.643C125.273 102.822 125.298 104.009 125.331 105.204C125.364 106.184 125.622 106.898 126.103 107.346C126.585 107.795 127.298 108.019 128.245 108.019C129.224 108.019 129.93 107.828 130.362 107.446C130.81 107.064 131.076 106.475 131.159 105.678C131.192 105.263 131.408 104.914 131.806 104.632C132.205 104.349 132.645 104.208 133.126 104.208C134.421 104.208 135.069 104.864 135.069 106.176C135.069 106.856 134.903 107.496 134.571 108.093C134.255 108.691 133.799 109.214 133.201 109.662C132.603 110.111 131.881 110.459 131.034 110.708C130.204 110.974 129.274 111.107 128.245 111.107C127.265 111.107 126.352 110.999 125.505 110.783C124.659 110.584 123.92 110.243 123.289 109.762C122.658 109.297 122.151 108.691 121.77 107.944C121.404 107.197 121.205 106.284 121.172 105.204C121.105 102.664 121.105 100.215 121.172 97.8575C121.205 96.8115 121.413 95.9149 121.794 95.1678C122.176 94.4207 122.683 93.8146 123.314 93.3497C123.961 92.8683 124.7 92.5196 125.53 92.3037C126.36 92.0713 127.232 91.9551 128.145 91.9551C129.158 91.9551 130.088 92.0796 130.935 92.3286C131.798 92.5777 132.537 92.9181 133.151 93.3497C133.765 93.7648 134.239 94.2629 134.571 94.844C134.919 95.4085 135.094 96.0146 135.094 96.6621C135.094 97.9405 134.446 98.5798 133.151 98.5798Z" fill="white"/>
<path d="M111.008 93.9474C111.008 93.3165 111.232 92.8516 111.68 92.5528C112.145 92.2539 112.66 92.1045 113.224 92.1045C113.49 92.1045 113.747 92.146 113.996 92.229C114.262 92.2954 114.494 92.4033 114.694 92.5528C114.893 92.7022 115.051 92.8931 115.167 93.1256C115.283 93.358 115.341 93.632 115.341 93.9474V109.065C115.341 109.397 115.283 109.679 115.167 109.911C115.051 110.16 114.893 110.36 114.694 110.509C114.494 110.675 114.262 110.791 113.996 110.858C113.747 110.941 113.49 110.982 113.224 110.982C112.942 110.982 112.668 110.941 112.402 110.858C112.137 110.791 111.896 110.675 111.68 110.509C111.481 110.36 111.315 110.16 111.182 109.911C111.066 109.679 111.008 109.397 111.008 109.065V93.9474Z" fill="white"/>
<path d="M92.2785 95.1429C91.5812 95.1429 91.0914 94.9934 90.8091 94.6946C90.5269 94.3791 90.3857 94.0139 90.3857 93.5988C90.3857 93.4161 90.4106 93.2418 90.4605 93.0758C90.5269 92.8931 90.6265 92.7354 90.7593 92.6026C90.9087 92.4532 91.0997 92.3369 91.3321 92.2539C91.5812 92.1543 91.8966 92.1045 92.2785 92.1045H104.831C105.528 92.1045 106.018 92.2622 106.3 92.5777C106.582 92.8765 106.723 93.2418 106.723 93.6735C106.723 93.8561 106.69 94.0388 106.624 94.2214C106.574 94.3874 106.474 94.5369 106.325 94.6697C106.192 94.8025 106.001 94.9187 105.752 95.0184C105.52 95.1014 105.212 95.1429 104.831 95.1429H100.746V109.065C100.746 109.397 100.68 109.679 100.547 109.911C100.431 110.16 100.273 110.36 100.074 110.509C99.8745 110.675 99.642 110.791 99.3764 110.858C99.1273 110.941 98.87 110.982 98.6043 110.982C98.3221 110.982 98.0481 110.941 97.7825 110.858C97.5334 110.791 97.301 110.675 97.0851 110.509C96.8859 110.36 96.7199 110.16 96.587 109.911C96.4708 109.679 96.4127 109.397 96.4127 109.065V95.1429H92.2785Z" fill="white"/>
<path d="M345.772 143.127H341.069C340.97 143.908 340.778 144.659 340.494 145.383C340.395 145.638 340.296 145.887 340.196 146.128C340.835 147.135 341.7 148.022 342.793 148.788C343.928 149.568 345.162 150.207 346.496 150.703L345.581 152.023C344.985 151.781 344.382 151.484 343.772 151.129C343.176 150.774 342.594 150.384 342.027 149.958C341.473 149.533 340.948 149.072 340.452 148.575C340.097 148.206 339.771 147.83 339.473 147.447C339.274 147.774 339.062 148.086 338.835 148.384C338.154 149.292 337.359 150.1 336.451 150.81C335.557 151.519 334.621 152.094 333.642 152.533L332.663 151.363C333.656 150.937 334.557 150.405 335.366 149.767C336.189 149.128 336.898 148.405 337.494 147.596C338.09 146.773 338.558 145.887 338.898 144.936C339.097 144.354 339.246 143.751 339.345 143.127H333.876V141.723H345.772V143.127ZM336.047 159.833V153.576H337.664V158.428H350.433V159.833H336.047ZM348.198 155.066V141.063H349.815V145.958H352.433V147.405H349.815V155.066H348.198Z" fill="white"/>
<path d="M329.166 155.278V141.062H330.783V147.021H333.4V148.468H330.783V155.278H329.166ZM317.014 159.832V154.384H318.632V158.428H331.4V159.832H317.014ZM317.078 142.148V140.786H324.186V142.148H317.078ZM314.312 144.765V143.403H326.952V144.765H314.312ZM320.802 153.15C320.036 153.15 319.327 153.058 318.674 152.873C318.036 152.675 317.482 152.412 317.014 152.086C316.56 151.745 316.206 151.348 315.95 150.894C315.695 150.44 315.567 149.944 315.567 149.404C315.567 148.865 315.695 148.369 315.95 147.915C316.206 147.461 316.56 147.071 317.014 146.744C317.482 146.404 318.036 146.141 318.674 145.957C319.327 145.758 320.036 145.659 320.802 145.659C321.568 145.659 322.271 145.758 322.909 145.957C323.562 146.141 324.115 146.404 324.569 146.744C325.037 147.071 325.399 147.461 325.654 147.915C325.91 148.369 326.037 148.865 326.037 149.404C326.037 149.944 325.91 150.44 325.654 150.894C325.399 151.348 325.037 151.745 324.569 152.086C324.115 152.412 323.562 152.675 322.909 152.873C322.271 153.058 321.568 153.15 320.802 153.15ZM320.802 151.83C321.895 151.83 322.767 151.625 323.42 151.213C324.087 150.788 324.42 150.185 324.42 149.404C324.42 148.624 324.087 148.028 323.42 147.617C322.767 147.191 321.895 146.978 320.802 146.978C319.71 146.978 318.83 147.191 318.163 147.617C317.511 148.028 317.184 148.624 317.184 149.404C317.184 150.185 317.511 150.788 318.163 151.213C318.83 151.625 319.71 151.83 320.802 151.83Z" fill="white"/>
<path d="M289.699 155.172L292.423 155.066L292.21 144.553H293.849L294.041 155.002L298.361 154.81L298.573 144.553H300.212L299.999 154.747L303.468 154.598V156.002L289.699 156.662V155.172ZM304.617 160.046V141.063H306.234V160.046H304.617ZM290.125 143.276V141.872H302.021V143.276H290.125Z" fill="white"/>
<path d="M271.817 141.872H281.564C281.592 143.702 281.394 145.39 280.968 146.937C280.542 148.483 279.918 149.895 279.095 151.171C278.287 152.448 277.301 153.583 276.137 154.576C274.974 155.569 273.669 156.428 272.222 157.151L271.094 156.023C272.47 155.399 273.683 154.654 274.733 153.789C275.797 152.909 276.691 151.93 277.414 150.852C277.826 150.242 278.187 149.604 278.499 148.937L271.477 149.15V147.745L279.053 147.554C279.081 147.469 279.102 147.391 279.117 147.32C279.528 146.043 279.776 144.695 279.861 143.276H271.817V141.872ZM281.607 148.554H285.586V141.063H287.203V160.046H285.586V150.001H281.607V148.554Z" fill="white"/>
<path d="M263.849 150.788V152.192H245.207V150.788H263.849ZM247.293 159.832V153.788H248.91V158.428H262.466V159.832H247.293ZM248.931 141.19V146.702H261.934V148.085H247.314V141.19H248.931Z" fill="white"/>
<path d="M241.603 160.046V141.063H243.22V160.046H241.603ZM227.536 156.896V148.384H235.367V143.149H227.536V141.744H236.985V149.788H229.153V155.364L240.134 154.832V156.215L227.536 156.896Z" fill="white"/>
<path d="M209.143 159.918V155.576H222.124V153.959H209.143V152.64H215.634V150.767H207.143V149.405H225.785V150.767H217.294V152.64H223.742V156.853H210.76V158.577H224.189V159.918H209.143ZM216.464 140.297C217.343 140.297 218.166 140.396 218.932 140.595C219.698 140.779 220.358 141.041 220.911 141.382C221.479 141.722 221.919 142.141 222.231 142.638C222.557 143.12 222.72 143.659 222.72 144.255C222.72 144.851 222.557 145.397 222.231 145.894C221.919 146.376 221.479 146.787 220.911 147.128C220.358 147.468 219.698 147.738 218.932 147.936C218.166 148.121 217.343 148.213 216.464 148.213C215.584 148.213 214.761 148.121 213.995 147.936C213.229 147.738 212.562 147.468 211.995 147.128C211.441 146.787 211.002 146.376 210.675 145.894C210.363 145.397 210.207 144.851 210.207 144.255C210.207 143.659 210.363 143.12 210.675 142.638C211.002 142.141 211.441 141.722 211.995 141.382C212.562 141.041 213.229 140.779 213.995 140.595C214.761 140.396 215.584 140.297 216.464 140.297ZM216.464 146.894C217.116 146.894 217.719 146.83 218.272 146.702C218.84 146.574 219.329 146.397 219.741 146.17C220.166 145.943 220.5 145.667 220.741 145.34C220.982 145.014 221.103 144.652 221.103 144.255C221.103 143.858 220.982 143.496 220.741 143.17C220.5 142.843 220.166 142.567 219.741 142.34C219.329 142.113 218.84 141.935 218.272 141.808C217.719 141.68 217.116 141.616 216.464 141.616C215.811 141.616 215.201 141.68 214.633 141.808C214.08 141.935 213.591 142.113 213.165 142.34C212.754 142.567 212.427 142.843 212.186 143.17C211.945 143.496 211.824 143.858 211.824 144.255C211.824 144.652 211.945 145.014 212.186 145.34C212.427 145.667 212.754 145.943 213.165 146.17C213.591 146.397 214.08 146.574 214.633 146.702C215.201 146.83 215.811 146.894 216.464 146.894Z" fill="white"/>
<path d="M194.621 141.957C195.472 141.957 196.26 142.113 196.983 142.425C197.721 142.737 198.359 143.177 198.899 143.744C199.452 144.298 199.878 144.972 200.175 145.766C200.402 146.348 200.544 146.965 200.601 147.618H203.751V141.063H205.368V160.046H203.751V149.065H200.622C200.566 149.774 200.417 150.427 200.175 151.022C199.878 151.817 199.452 152.498 198.899 153.065C198.359 153.619 197.721 154.051 196.983 154.364C196.26 154.676 195.472 154.832 194.621 154.832C193.77 154.832 192.975 154.676 192.238 154.364C191.514 154.051 190.876 153.619 190.322 153.065C189.783 152.498 189.358 151.817 189.046 151.022C188.748 150.228 188.599 149.348 188.599 148.384C188.599 147.433 188.748 146.561 189.046 145.766C189.358 144.972 189.783 144.298 190.322 143.744C190.876 143.177 191.514 142.737 192.238 142.425C192.975 142.113 193.77 141.957 194.621 141.957ZM194.621 143.404C193.983 143.404 193.394 143.517 192.855 143.744C192.33 143.971 191.876 144.305 191.493 144.745C191.11 145.17 190.805 145.688 190.578 146.298C190.365 146.908 190.259 147.596 190.259 148.362C190.259 149.114 190.358 149.802 190.556 150.427C190.769 151.037 191.06 151.562 191.429 152.001C191.812 152.441 192.273 152.782 192.812 153.023C193.351 153.264 193.954 153.385 194.621 153.385C195.288 153.385 195.891 153.264 196.43 153.023C196.969 152.782 197.423 152.441 197.792 152.001C198.175 151.562 198.466 151.037 198.664 150.427C198.877 149.802 198.984 149.114 198.984 148.362C198.984 147.596 198.87 146.908 198.643 146.298C198.43 145.688 198.132 145.17 197.749 144.745C197.366 144.305 196.905 143.971 196.366 143.744C195.841 143.517 195.26 143.404 194.621 143.404Z" fill="white"/>
<path d="M168.181 142.084C168.891 142.084 169.564 142.233 170.203 142.531C170.841 142.829 171.395 143.255 171.863 143.808C172.345 144.362 172.728 145.028 173.012 145.809C173.211 146.362 173.338 146.958 173.395 147.596H175.608V141.255H177.204V159.535H175.608V149.043H173.416C173.36 149.753 173.225 150.405 173.012 151.001C172.728 151.767 172.345 152.427 171.863 152.98C171.395 153.534 170.841 153.959 170.203 154.257C169.564 154.555 168.891 154.704 168.181 154.704C167.472 154.704 166.798 154.555 166.159 154.257C165.521 153.959 164.961 153.534 164.478 152.98C163.996 152.427 163.613 151.767 163.329 151.001C163.06 150.221 162.925 149.348 162.925 148.384C162.925 147.433 163.06 146.575 163.329 145.809C163.613 145.028 163.996 144.362 164.478 143.808C164.961 143.255 165.521 142.829 166.159 142.531C166.798 142.233 167.472 142.084 168.181 142.084ZM168.181 153.278C168.706 153.278 169.188 153.165 169.628 152.938C170.082 152.711 170.472 152.392 170.799 151.98C171.125 151.554 171.38 151.044 171.565 150.448C171.749 149.838 171.841 149.15 171.841 148.384C171.841 147.618 171.749 146.937 171.565 146.341C171.38 145.731 171.125 145.22 170.799 144.808C170.472 144.383 170.082 144.056 169.628 143.83C169.188 143.603 168.706 143.489 168.181 143.489C167.656 143.489 167.167 143.603 166.713 143.83C166.273 144.056 165.89 144.383 165.564 144.808C165.237 145.22 164.982 145.731 164.798 146.341C164.613 146.937 164.521 147.618 164.521 148.384C164.521 149.15 164.613 149.838 164.798 150.448C164.982 151.044 165.237 151.554 165.564 151.98C165.89 152.392 166.273 152.711 166.713 152.938C167.167 153.165 167.656 153.278 168.181 153.278ZM179.269 160.024V141.063H180.886V160.024H179.269Z" fill="white"/>
<path d="M153.448 145.744C154.271 145.744 155.051 145.822 155.789 145.978C156.527 146.12 157.165 146.34 157.704 146.638C158.257 146.922 158.69 147.277 159.002 147.702C159.329 148.114 159.492 148.596 159.492 149.149C159.492 149.703 159.329 150.192 159.002 150.618C158.69 151.029 158.257 151.384 157.704 151.682C157.165 151.965 156.527 152.185 155.789 152.341C155.051 152.483 154.271 152.554 153.448 152.554C152.611 152.554 151.824 152.483 151.086 152.341C150.362 152.185 149.724 151.965 149.171 151.682C148.631 151.384 148.199 151.029 147.872 150.618C147.56 150.192 147.404 149.703 147.404 149.149C147.404 148.596 147.56 148.114 147.872 147.702C148.199 147.277 148.631 146.922 149.171 146.638C149.724 146.34 150.362 146.12 151.086 145.978C151.824 145.822 152.611 145.744 153.448 145.744ZM152.618 160.045V155.108H144.127V153.746H162.769V155.108H154.278V160.045H152.618ZM153.448 151.235C154.086 151.235 154.675 151.192 155.214 151.107C155.768 151.022 156.236 150.894 156.619 150.724C157.016 150.54 157.321 150.32 157.534 150.064C157.761 149.795 157.874 149.49 157.874 149.149C157.874 148.809 157.761 148.511 157.534 148.256C157.321 147.986 157.016 147.766 156.619 147.596C156.236 147.411 155.768 147.277 155.214 147.191C154.675 147.106 154.086 147.064 153.448 147.064C152.81 147.064 152.214 147.106 151.66 147.191C151.121 147.277 150.653 147.411 150.256 147.596C149.873 147.766 149.568 147.986 149.341 148.256C149.128 148.511 149.022 148.809 149.022 149.149C149.022 149.49 149.128 149.795 149.341 150.064C149.568 150.32 149.873 150.54 150.256 150.724C150.653 150.894 151.121 151.022 151.66 151.107C152.214 151.192 152.81 151.235 153.448 151.235ZM145.404 144.936V143.574H161.492V144.936H145.404ZM157.917 141.02V142.382H148.979V141.02H157.917Z" fill="white"/>
<path d="M134.394 141.02C135.43 141.02 136.374 141.183 137.225 141.509C138.076 141.822 138.807 142.247 139.417 142.786C140.027 143.325 140.495 143.95 140.821 144.659C141.162 145.368 141.332 146.113 141.332 146.894C141.332 147.674 141.162 148.419 140.821 149.128C140.495 149.837 140.027 150.462 139.417 151.001C138.807 151.54 138.076 151.973 137.225 152.299C136.615 152.526 135.955 152.675 135.246 152.746V156.853H143.737V158.258H125.095V156.853H133.586V152.746C132.862 152.675 132.188 152.526 131.564 152.299C130.713 151.973 129.982 151.54 129.372 151.001C128.762 150.462 128.287 149.837 127.946 149.128C127.62 148.419 127.457 147.674 127.457 146.894C127.457 146.113 127.62 145.368 127.946 144.659C128.287 143.95 128.762 143.325 129.372 142.786C129.982 142.247 130.713 141.822 131.564 141.509C132.415 141.183 133.359 141.02 134.394 141.02ZM134.394 151.363C135.217 151.363 135.955 151.242 136.608 151.001C137.26 150.76 137.814 150.433 138.268 150.022C138.736 149.61 139.09 149.135 139.332 148.596C139.587 148.057 139.715 147.489 139.715 146.894C139.715 146.298 139.587 145.73 139.332 145.191C139.09 144.652 138.736 144.177 138.268 143.765C137.814 143.354 137.26 143.028 136.608 142.786C135.955 142.545 135.217 142.425 134.394 142.425C133.572 142.425 132.834 142.545 132.181 142.786C131.529 143.028 130.968 143.354 130.5 143.765C130.046 144.177 129.691 144.652 129.436 145.191C129.195 145.73 129.074 146.298 129.074 146.894C129.074 147.489 129.195 148.057 129.436 148.596C129.691 149.135 130.046 149.61 130.5 150.022C130.968 150.433 131.529 150.76 132.181 151.001C132.834 151.242 133.572 151.363 134.394 151.363Z" fill="white"/>
<path d="M115.168 155.278V141.062H116.785V147.021H119.402V148.468H116.785V155.278H115.168ZM103.016 159.832V154.384H104.634V158.428H117.402V159.832H103.016ZM103.08 142.148V140.786H110.188V142.148H103.08ZM100.313 144.765V143.403H112.954V144.765H100.313ZM106.804 153.15C106.038 153.15 105.329 153.058 104.676 152.873C104.038 152.675 103.484 152.412 103.016 152.086C102.562 151.745 102.207 151.348 101.952 150.894C101.697 150.44 101.569 149.944 101.569 149.404C101.569 148.865 101.697 148.369 101.952 147.915C102.207 147.461 102.562 147.071 103.016 146.744C103.484 146.404 104.038 146.141 104.676 145.957C105.329 145.758 106.038 145.659 106.804 145.659C107.57 145.659 108.273 145.758 108.911 145.957C109.564 146.141 110.117 146.404 110.571 146.744C111.039 147.071 111.401 147.461 111.656 147.915C111.912 148.369 112.039 148.865 112.039 149.404C112.039 149.944 111.912 150.44 111.656 150.894C111.401 151.348 111.039 151.745 110.571 152.086C110.117 152.412 109.564 152.675 108.911 152.873C108.273 153.058 107.57 153.15 106.804 153.15ZM106.804 151.83C107.897 151.83 108.769 151.625 109.422 151.213C110.089 150.788 110.422 150.185 110.422 149.404C110.422 148.624 110.089 148.028 109.422 147.617C108.769 147.191 107.897 146.978 106.804 146.978C105.712 146.978 104.832 147.191 104.165 147.617C103.513 148.028 103.186 148.624 103.186 149.404C103.186 150.185 103.513 150.788 104.165 151.213C104.832 151.625 105.712 151.83 106.804 151.83Z" fill="white"/>
<path d="M90.4111 141.02C91.4467 141.02 92.3902 141.176 93.2414 141.488C94.0927 141.8 94.8233 142.226 95.4334 142.765C96.0434 143.29 96.5116 143.9 96.8379 144.595C97.1784 145.29 97.3486 146.021 97.3486 146.787C97.3486 147.553 97.1784 148.284 96.8379 148.979C96.5116 149.674 96.0434 150.291 95.4334 150.831C94.8233 151.355 94.0927 151.774 93.2414 152.086C92.3902 152.398 91.4467 152.554 90.4111 152.554C89.3754 152.554 88.432 152.398 87.5807 152.086C86.7295 151.774 85.9988 151.355 85.3888 150.831C84.7787 150.291 84.3035 149.674 83.963 148.979C83.6367 148.284 83.4735 147.553 83.4735 146.787C83.4735 146.021 83.6367 145.29 83.963 144.595C84.3035 143.9 84.7787 143.29 85.3888 142.765C85.9988 142.226 86.7295 141.8 87.5807 141.488C88.432 141.176 89.3754 141.02 90.4111 141.02ZM90.4111 151.15C91.2339 151.15 91.9717 151.036 92.6243 150.809C93.2769 150.568 93.8302 150.249 94.2842 149.852C94.7524 149.454 95.1071 148.993 95.3482 148.468C95.6036 147.929 95.7313 147.369 95.7313 146.787C95.7313 146.205 95.6036 145.652 95.3482 145.127C95.1071 144.588 94.7524 144.12 94.2842 143.723C93.8302 143.325 93.2769 143.013 92.6243 142.786C91.9717 142.545 91.2339 142.425 90.4111 142.425C89.5882 142.425 88.8505 142.545 88.1979 142.786C87.5452 143.013 86.9849 143.325 86.5167 143.723C86.0627 144.12 85.708 144.588 85.4526 145.127C85.2114 145.652 85.0909 146.205 85.0909 146.787C85.0909 147.369 85.2114 147.929 85.4526 148.468C85.708 148.993 86.0627 149.454 86.5167 149.852C86.9849 150.249 87.5452 150.568 88.1979 150.809C88.8505 151.036 89.5882 151.15 90.4111 151.15ZM85.3675 156.853V152.831H87.0061V156.853H93.9224V152.831H95.561V156.853H99.7534V158.258H81.1113V156.853H85.3675Z" fill="white"/>
<path d="M69.337 156.853V149.085H70.9969V156.853H80.6372V158.257H61.9951V156.853H69.337ZM76.1043 153.959C76.2888 153.107 76.4519 152.207 76.5938 151.256C76.7357 150.306 76.8492 149.362 76.9343 148.426C77.0336 147.489 77.1046 146.588 77.1471 145.723C77.2039 144.843 77.2322 144.056 77.2322 143.361H63.8891V141.956H78.8921C78.8921 144.07 78.7928 146.163 78.5942 148.234C78.3956 150.306 78.0906 152.214 77.6791 153.959H76.1043Z" fill="white"/>
<path d="M52.897 160.046V141.063H54.5144V160.046H52.897ZM37.5322 156.981V155.534L52.0458 155.364V156.768L37.5322 156.981ZM44.4485 141.531C45.2997 141.531 46.073 141.68 46.7681 141.978C47.4775 142.276 48.0875 142.673 48.5983 143.17C49.109 143.666 49.4992 144.241 49.7687 144.894C50.0525 145.532 50.1944 146.199 50.1944 146.894C50.1944 147.589 50.0525 148.263 49.7687 148.916C49.4992 149.554 49.109 150.122 48.5983 150.618C48.0875 151.115 47.4775 151.512 46.7681 151.81C46.073 152.108 45.2997 152.257 44.4485 152.257C43.5973 152.257 42.817 152.108 42.1076 151.81C41.4124 151.512 40.8095 151.115 40.2987 150.618C39.788 150.122 39.3908 149.554 39.107 148.916C38.8375 148.263 38.7027 147.589 38.7027 146.894C38.7027 146.199 38.8375 145.532 39.107 144.894C39.3908 144.241 39.788 143.666 40.2987 143.17C40.8095 142.673 41.4124 142.276 42.1076 141.978C42.817 141.68 43.5973 141.531 44.4485 141.531ZM44.4485 150.852C45.0728 150.852 45.6402 150.746 46.151 150.533C46.6617 150.306 47.0944 150.008 47.4491 149.639C47.818 149.27 48.0946 148.852 48.2791 148.384C48.4777 147.901 48.577 147.405 48.577 146.894C48.577 146.383 48.4777 145.894 48.2791 145.426C48.0946 144.943 47.818 144.518 47.4491 144.149C47.0944 143.78 46.6617 143.489 46.151 143.276C45.6402 143.049 45.0728 142.936 44.4485 142.936C43.8243 142.936 43.2568 143.049 42.746 143.276C42.2353 143.489 41.7955 143.78 41.4266 144.149C41.0719 144.518 40.7953 144.943 40.5967 145.426C40.4122 145.894 40.32 146.383 40.32 146.894C40.32 147.405 40.4122 147.901 40.5967 148.384C40.7953 148.852 41.0719 149.27 41.4266 149.639C41.7955 150.008 42.2353 150.306 42.746 150.533C43.2568 150.746 43.8243 150.852 44.4485 150.852Z" fill="white"/>
<path d="M30.311 151.852C29.6868 151.569 29.0625 151.214 28.4383 150.788C27.8141 150.363 27.2253 149.887 26.672 149.363C26.1187 148.838 25.6079 148.27 25.1398 147.66C24.9411 147.419 24.7638 147.171 24.6077 146.915C24.4091 147.284 24.1892 147.639 23.948 147.979C23.3096 148.93 22.5506 149.788 21.671 150.554C20.8056 151.306 19.855 151.938 18.8193 152.448L17.7979 151.32C18.8193 150.852 19.7273 150.278 20.5218 149.597C21.3163 148.901 21.9902 148.121 22.5435 147.256C23.111 146.39 23.5508 145.468 23.8629 144.489C24.175 143.496 24.3595 142.468 24.4162 141.403H26.0761C26.0477 142.624 25.8491 143.787 25.4803 144.894C25.4093 145.092 25.3384 145.284 25.2674 145.468C25.4803 145.865 25.7214 146.248 25.991 146.617C26.4308 147.199 26.9274 147.738 27.4807 148.235C28.034 148.731 28.6298 149.178 29.2683 149.575C29.9067 149.973 30.5806 150.313 31.2899 150.597L30.311 151.852ZM21.3518 159.833V153.576H22.9691V158.428H35.9504V159.833H21.3518ZM33.8011 155.066V141.063H35.4184V155.066H33.8011Z" fill="white"/>
<path d="M9.70409 151.448C10.5979 151.448 11.4137 151.562 12.1514 151.789C12.8891 152.016 13.5205 152.328 14.0454 152.725C14.5845 153.122 15.003 153.597 15.301 154.151C15.5989 154.69 15.7479 155.286 15.7479 155.938C15.7479 156.591 15.5989 157.194 15.301 157.747C15.003 158.286 14.5845 158.755 14.0454 159.152C13.5205 159.549 12.8891 159.861 12.1514 160.088C11.4137 160.315 10.5979 160.429 9.70409 160.429C8.81029 160.429 7.98743 160.315 7.2355 160.088C6.49777 159.861 5.85934 159.549 5.32022 159.152C4.79529 158.755 4.38386 158.286 4.08593 157.747C3.80219 157.194 3.66031 156.591 3.66031 155.938C3.66031 155.286 3.80219 154.69 4.08593 154.151C4.38386 153.597 4.79529 153.122 5.32022 152.725C5.85934 152.328 6.49777 152.016 7.2355 151.789C7.98743 151.562 8.81029 151.448 9.70409 151.448ZM9.70409 159.024C11.1086 159.024 12.194 158.733 12.9601 158.152C13.7404 157.57 14.1305 156.832 14.1305 155.938C14.1305 155.045 13.7404 154.307 12.9601 153.725C12.194 153.143 11.1086 152.853 9.70409 152.853C8.29955 152.853 7.20713 153.143 6.42683 153.725C5.66072 154.307 5.27766 155.045 5.27766 155.938C5.27766 156.832 5.66072 157.57 6.42683 158.152C7.20713 158.733 8.29955 159.024 9.70409 159.024ZM10.002 141.723V143.127H1.61735V148.852L12.5983 148.405V149.788L0 150.384V141.723H10.002ZM13.8751 151.64V141.063H15.4925V145H18.11V146.447H15.4925V151.64H13.8751Z" fill="white"/>
<path d="M253.857 16.909C254.551 16.909 255.171 16.8263 255.717 16.661C256.279 16.4956 256.75 16.2724 257.131 15.9913C257.528 15.6937 257.825 15.363 258.024 14.9992C258.222 14.6189 258.321 14.2303 258.321 13.8335V13.3126C258.321 12.8992 258.255 12.5272 258.123 12.1965C257.991 11.8658 257.751 11.5681 257.404 11.3036C257.056 11.0225 256.577 10.7745 255.965 10.5595C255.37 10.328 254.593 10.1048 253.634 9.88983C252.592 9.65834 251.715 9.39378 251.004 9.09615C250.31 8.78198 249.748 8.43474 249.318 8.05443C248.904 7.65759 248.607 7.22768 248.425 6.7647C248.26 6.28518 248.177 5.76432 248.177 5.20213V4.63166C248.177 3.95372 248.317 3.34193 248.599 2.79627C248.896 2.23407 249.301 1.75455 249.814 1.35771C250.343 0.960867 250.963 0.654968 251.674 0.440011C252.402 0.208519 253.187 0.0927734 254.03 0.0927734C255.237 0.0927734 256.271 0.24159 257.131 0.539222C257.991 0.820319 258.726 1.17582 259.338 1.60574L258.52 3.01949C257.941 2.60611 257.28 2.28368 256.535 2.05219C255.791 1.80416 254.956 1.68015 254.03 1.68015C253.485 1.68015 252.964 1.74629 252.468 1.87857C251.972 2.01085 251.534 2.20927 251.153 2.47383C250.789 2.72186 250.492 3.02776 250.26 3.39153C250.045 3.7553 249.938 4.16868 249.938 4.63166V5.12772C249.938 5.50803 250.004 5.85526 250.136 6.16943C250.285 6.4836 250.517 6.7647 250.831 7.01272C251.162 7.26075 251.6 7.49224 252.145 7.7072C252.691 7.92215 253.369 8.12058 254.179 8.30246C255.337 8.56702 256.296 8.85639 257.056 9.17056C257.817 9.46819 258.42 9.81543 258.867 10.2123C259.313 10.6091 259.627 11.0556 259.809 11.5516C259.991 12.0477 260.082 12.6181 260.082 13.263V13.8335C260.082 14.4783 259.942 15.0819 259.661 15.6441C259.379 16.2063 258.974 16.7023 258.445 17.1322C257.933 17.5621 257.288 17.9011 256.511 18.1491C255.75 18.3972 254.89 18.5212 253.931 18.5212C252.741 18.5212 251.625 18.3393 250.583 17.9755C249.558 17.6283 248.648 17.1488 247.854 16.537L248.747 15.0736C249.64 15.7185 250.508 16.1897 251.352 16.4873C252.212 16.7684 253.047 16.909 253.857 16.909Z" fill="white"/>
<path d="M240.054 16.909C240.748 16.909 241.369 16.8263 241.914 16.661C242.476 16.4956 242.948 16.2724 243.328 15.9913C243.725 15.6937 244.022 15.363 244.221 14.9992C244.419 14.6189 244.518 14.2303 244.518 13.8335V13.3126C244.518 12.8992 244.452 12.5272 244.32 12.1965C244.188 11.8658 243.948 11.5681 243.601 11.3036C243.254 11.0225 242.774 10.7745 242.162 10.5595C241.567 10.328 240.79 10.1048 239.831 9.88983C238.789 9.65834 237.913 9.39378 237.202 9.09615C236.507 8.78198 235.945 8.43474 235.515 8.05443C235.102 7.65759 234.804 7.22768 234.622 6.7647C234.457 6.28518 234.374 5.76432 234.374 5.20213V4.63166C234.374 3.95372 234.515 3.34193 234.796 2.79627C235.093 2.23407 235.499 1.75455 236.011 1.35771C236.54 0.960867 237.16 0.654968 237.871 0.440011C238.599 0.208519 239.384 0.0927734 240.228 0.0927734C241.435 0.0927734 242.468 0.24159 243.328 0.539222C244.188 0.820319 244.924 1.17582 245.535 1.60574L244.717 3.01949C244.138 2.60611 243.477 2.28368 242.733 2.05219C241.989 1.80416 241.154 1.68015 240.228 1.68015C239.682 1.68015 239.161 1.74629 238.665 1.87857C238.169 2.01085 237.731 2.20927 237.351 2.47383C236.987 2.72186 236.689 3.02776 236.458 3.39153C236.243 3.7553 236.135 4.16868 236.135 4.63166V5.12772C236.135 5.50803 236.201 5.85526 236.334 6.16943C236.482 6.4836 236.714 6.7647 237.028 7.01272C237.359 7.26075 237.797 7.49224 238.343 7.7072C238.888 7.92215 239.566 8.12058 240.376 8.30246C241.534 8.56702 242.493 8.85639 243.254 9.17056C244.014 9.46819 244.618 9.81543 245.064 10.2123C245.511 10.6091 245.825 11.0556 246.007 11.5516C246.189 12.0477 246.279 12.6181 246.279 13.263V13.8335C246.279 14.4783 246.139 15.0819 245.858 15.6441C245.577 16.2063 245.172 16.7023 244.643 17.1322C244.13 17.5621 243.485 17.9011 242.708 18.1491C241.947 18.3972 241.087 18.5212 240.128 18.5212C238.938 18.5212 237.822 18.3393 236.78 17.9755C235.755 17.6283 234.845 17.1488 234.052 16.537L234.945 15.0736C235.838 15.7185 236.706 16.1897 237.549 16.4873C238.409 16.7684 239.244 16.909 240.054 16.909Z" fill="white"/>
<path d="M232.045 0.365967V1.90373H223.016V8.30283H231.524V9.84059H223.016V16.7109H232.218V18.2487H221.28V0.365967H232.045Z" fill="white"/>
<path d="M213.322 0.0927734C214.512 0.0927734 215.562 0.249857 216.471 0.564024C217.397 0.861657 218.232 1.29984 218.977 1.87857L218.084 3.24271C217.273 2.66398 216.505 2.26714 215.777 2.05219C215.049 1.83723 214.231 1.72975 213.322 1.72975C212.495 1.72975 211.759 1.88683 211.114 2.201C210.486 2.49863 209.957 2.92855 209.527 3.49074C209.097 4.0364 208.766 4.69781 208.535 5.47496C208.32 6.23557 208.212 7.08713 208.212 8.02963V10.3115C208.212 12.5272 208.675 14.1724 209.601 15.2472C210.544 16.322 211.842 16.8594 213.495 16.8594C214.62 16.8594 215.57 16.6858 216.347 16.3385C217.141 15.9748 217.827 15.5366 218.406 15.024L219.423 16.3881C218.762 16.9834 217.96 17.4877 217.017 17.9011C216.075 18.3145 214.892 18.5212 213.47 18.5212C211.155 18.5212 209.403 17.8019 208.212 16.3633C207.038 14.9248 206.451 12.9075 206.451 10.3115V8.10404C206.451 5.55763 207.046 3.58995 208.237 2.201C209.444 0.795516 211.139 0.0927734 213.322 0.0927734Z" fill="white"/>
<path d="M197.487 0.0927734C198.595 0.0927734 199.579 0.282927 200.439 0.663235C201.298 1.02701 202.026 1.55613 202.621 2.25061C203.217 2.94508 203.671 3.78837 203.985 4.78048C204.3 5.75605 204.457 6.85564 204.457 8.07924V10.5347C204.457 11.7583 204.3 12.8662 203.985 13.8583C203.671 14.8338 203.217 15.6689 202.621 16.3633C202.026 17.0578 201.298 17.5869 200.439 17.9507C199.579 18.331 198.595 18.5212 197.487 18.5212C196.379 18.5212 195.395 18.331 194.536 17.9507C193.676 17.5869 192.948 17.0578 192.353 16.3633C191.758 15.6689 191.303 14.8338 190.989 13.8583C190.675 12.8662 190.518 11.7583 190.518 10.5347V8.07924C190.518 6.85564 190.666 5.75605 190.964 4.78048C191.278 3.78837 191.733 2.94508 192.328 2.25061C192.923 1.55613 193.651 1.02701 194.511 0.663235C195.387 0.282927 196.379 0.0927734 197.487 0.0927734ZM197.487 16.9586C199.091 16.9586 200.356 16.4047 201.282 15.2968C202.224 14.1724 202.696 12.5355 202.696 10.3859V8.22805C202.696 6.07849 202.224 4.44978 201.282 3.34192C200.356 2.21754 199.091 1.65534 197.487 1.65534C195.883 1.65534 194.61 2.21754 193.668 3.34192C192.742 4.44978 192.279 6.07849 192.279 8.22805V10.3859C192.279 12.5355 192.742 14.1724 193.668 15.2968C194.61 16.4047 195.883 16.9586 197.487 16.9586Z" fill="white"/>
<path d="M183.452 10.5103C183.337 10.5268 183.221 10.5351 183.105 10.5351C183.006 10.5351 182.898 10.5351 182.783 10.5351H178.318V18.2487H176.582V0.365967H182.758C183.651 0.365967 184.444 0.489981 185.139 0.738008C185.833 0.9695 186.42 1.30847 186.9 1.75492C187.396 2.18483 187.768 2.69742 188.016 3.29268C188.264 3.88795 188.388 4.53282 188.388 5.22729V5.59933C188.388 6.69065 188.099 7.63315 187.52 8.42684C186.941 9.20399 186.156 9.77445 185.164 10.1382L188.76 18.2487H186.9L183.452 10.5103ZM178.318 1.92854V8.9725H182.237C183.791 8.9725 184.907 8.67487 185.585 8.0796C186.28 7.4678 186.627 6.61624 186.627 5.52493V5.2769C186.627 4.23519 186.288 3.4167 185.61 2.82143C184.949 2.22617 183.915 1.92854 182.51 1.92854H178.318Z" fill="white"/>
<path d="M162.996 0.365967H169.048C169.99 0.365967 170.817 0.498248 171.528 0.762811C172.256 1.01084 172.859 1.36634 173.339 1.82933C173.818 2.27577 174.174 2.81317 174.405 3.4415C174.653 4.06983 174.777 4.74777 174.777 5.47532V5.99618C174.777 6.72372 174.645 7.40166 174.381 8.03C174.133 8.65833 173.76 9.21226 173.264 9.69178C172.785 10.1548 172.19 10.5185 171.479 10.7831C170.768 11.0477 169.957 11.1799 169.048 11.1799H164.732V18.2487H162.996V0.365967ZM164.732 1.92854V9.61737H168.626C170.164 9.61737 171.28 9.28667 171.975 8.62526C172.669 7.96386 173.016 7.07096 173.016 5.94657V5.50012C173.016 4.44187 172.677 3.58205 171.999 2.92064C171.338 2.25924 170.305 1.92854 168.899 1.92854H164.732Z" fill="white"/>
<path d="M150.681 10.9319V18.2487H148.945V10.9319L142.794 0.365967H144.753L149.838 9.34454L154.798 0.365967H156.733L150.681 10.9319Z" fill="white"/>
<path d="M141.779 0.365967V1.90373H132.751V8.30283H141.258V9.84059H132.751V16.7109H141.953V18.2487H131.015V0.365967H141.779Z" fill="white"/>
<path d="M115.371 0.365967H117.43L125.639 14.3547C125.788 14.6027 125.921 14.8507 126.036 15.0988C126.152 15.3303 126.301 15.6362 126.483 16.0165V0.365967H128.144V18.2487H126.086L117.851 4.21038C117.703 3.94582 117.57 3.70606 117.455 3.49111C117.339 3.27615 117.198 2.97852 117.033 2.59821V18.2487H115.371V0.365967Z" fill="white"/>
<path d="M105.961 0.0927734C107.069 0.0927734 108.052 0.282927 108.912 0.663235C109.772 1.02701 110.5 1.55613 111.095 2.25061C111.69 2.94508 112.145 3.78837 112.459 4.78048C112.773 5.75605 112.93 6.85564 112.93 8.07924V10.5347C112.93 11.7583 112.773 12.8662 112.459 13.8583C112.145 14.8338 111.69 15.6689 111.095 16.3633C110.5 17.0578 109.772 17.5869 108.912 17.9507C108.052 18.331 107.069 18.5212 105.961 18.5212C104.853 18.5212 103.869 18.331 103.009 17.9507C102.149 17.5869 101.422 17.0578 100.827 16.3633C100.231 15.6689 99.7766 14.8338 99.4625 13.8583C99.1483 12.8662 98.9912 11.7583 98.9912 10.5347V8.07924C98.9912 6.85564 99.14 5.75605 99.4377 4.78048C99.7518 3.78837 100.207 2.94508 100.802 2.25061C101.397 1.55613 102.125 1.02701 102.984 0.663235C103.861 0.282927 104.853 0.0927734 105.961 0.0927734ZM105.961 16.9586C107.565 16.9586 108.83 16.4047 109.756 15.2968C110.698 14.1724 111.169 12.5355 111.169 10.3859V8.22805C111.169 6.07849 110.698 4.44978 109.756 3.34192C108.83 2.21754 107.565 1.65534 105.961 1.65534C104.357 1.65534 103.084 2.21754 102.141 3.34192C101.215 4.44978 100.752 6.07849 100.752 8.22805V10.3859C100.752 12.5355 101.215 14.1724 102.141 15.2968C103.084 16.4047 104.357 16.9586 105.961 16.9586Z" fill="white"/>
<path d="M94.8306 9.79099H85.6288V18.2487H83.8926V0.365967H85.6288V8.0548H94.8306V0.365967H96.5668V18.2487H94.8306V9.79099Z" fill="white"/>
<path d="M342.841 176.682V178.81C343.309 178.072 343.94 177.484 344.735 177.044C345.543 176.59 346.423 176.363 347.374 176.363V177.703C346.82 177.703 346.303 177.789 345.82 177.959C345.338 178.115 344.912 178.342 344.543 178.64C344.174 178.924 343.855 179.257 343.586 179.64C343.33 180.023 343.153 180.435 343.054 180.874C342.983 181.13 342.926 181.477 342.883 181.917C342.855 182.357 342.841 182.896 342.841 183.534V188.386H341.309V176.682H342.841Z" fill="white"/>
<path d="M330.235 183.173C330.291 183.783 330.426 184.343 330.639 184.854C330.852 185.365 331.136 185.812 331.49 186.195C331.845 186.563 332.271 186.854 332.767 187.067C333.278 187.28 333.852 187.386 334.491 187.386C335.385 187.386 336.179 187.159 336.874 186.705C337.584 186.237 338.165 185.663 338.619 184.982L339.641 185.79C339.371 186.202 339.052 186.585 338.683 186.939C338.314 187.294 337.91 187.606 337.47 187.876C337.03 188.131 336.555 188.337 336.044 188.493C335.548 188.635 335.03 188.706 334.491 188.706C333.64 188.706 332.852 188.557 332.129 188.259C331.419 187.947 330.802 187.521 330.277 186.982C329.767 186.429 329.362 185.776 329.064 185.024C328.781 184.272 328.639 183.442 328.639 182.534C328.639 181.626 328.788 180.796 329.086 180.044C329.384 179.292 329.788 178.647 330.299 178.108C330.824 177.555 331.426 177.129 332.107 176.831C332.788 176.519 333.512 176.363 334.278 176.363C335.087 176.363 335.832 176.519 336.513 176.831C337.208 177.129 337.804 177.547 338.3 178.087C338.811 178.611 339.208 179.236 339.492 179.959C339.776 180.683 339.918 181.47 339.918 182.321V183.173H330.235ZM338.385 181.896C338.329 181.286 338.194 180.725 337.981 180.215C337.768 179.704 337.484 179.264 337.13 178.895C336.775 178.512 336.357 178.214 335.874 178.001C335.392 177.789 334.86 177.682 334.278 177.682C333.767 177.682 333.278 177.789 332.81 178.001C332.342 178.2 331.923 178.491 331.554 178.874C331.199 179.243 330.902 179.69 330.66 180.215C330.419 180.725 330.263 181.286 330.192 181.896H338.385Z" fill="white"/>
<path d="M317.405 176.682H319.065L322.534 184.875L323.002 186.194L323.492 184.875L326.96 176.682H328.62L323.513 188.386H322.513L317.405 176.682Z" fill="white"/>
<path d="M301.651 180.406C301.651 179.157 301.85 178.015 302.247 176.98C302.659 175.944 303.212 175.057 303.907 174.32C304.617 173.582 305.446 173.014 306.397 172.617C307.362 172.206 308.405 172 309.525 172C310.646 172 311.682 172.206 312.632 172.617C313.597 173.014 314.427 173.582 315.122 174.32C315.832 175.057 316.385 175.944 316.782 176.98C317.194 178.015 317.399 179.157 317.399 180.406C317.399 181.654 317.194 182.797 316.782 183.832C316.385 184.868 315.832 185.755 315.122 186.492C314.427 187.23 313.597 187.805 312.632 188.216C311.682 188.613 310.646 188.812 309.525 188.812C308.405 188.812 307.362 188.613 306.397 188.216C305.446 187.805 304.617 187.23 303.907 186.492C303.212 185.755 302.659 184.868 302.247 183.832C301.85 182.797 301.651 181.654 301.651 180.406ZM315.824 180.406C315.824 179.342 315.661 178.377 315.335 177.512C315.009 176.646 314.562 175.909 313.994 175.299C313.427 174.674 312.76 174.199 311.994 173.873C311.228 173.532 310.405 173.362 309.525 173.362C308.646 173.362 307.823 173.532 307.057 173.873C306.291 174.199 305.624 174.674 305.056 175.299C304.489 175.909 304.042 176.646 303.716 177.512C303.389 178.377 303.226 179.342 303.226 180.406C303.226 181.47 303.389 182.435 303.716 183.3C304.042 184.166 304.489 184.91 305.056 185.535C305.624 186.145 306.291 186.62 307.057 186.96C307.823 187.287 308.646 187.45 309.525 187.45C310.405 187.45 311.228 187.287 311.994 186.96C312.76 186.62 313.427 186.145 313.994 185.535C314.562 184.91 315.009 184.166 315.335 183.3C315.661 182.435 315.824 181.47 315.824 180.406Z" fill="white"/>
<path d="M291.197 176.682V178.81C291.665 178.072 292.297 177.484 293.091 177.044C293.9 176.59 294.78 176.363 295.73 176.363V177.703C295.177 177.703 294.659 177.789 294.177 177.959C293.694 178.115 293.269 178.342 292.9 178.64C292.531 178.924 292.212 179.257 291.942 179.64C291.687 180.023 291.509 180.435 291.41 180.874C291.339 181.13 291.282 181.477 291.24 181.917C291.211 182.357 291.197 182.896 291.197 183.534V188.386H289.665V176.682H291.197Z" fill="white"/>
<path d="M286.198 188.386V186.258C285.957 186.627 285.673 186.961 285.347 187.258C285.035 187.556 284.694 187.812 284.325 188.025C283.957 188.237 283.566 188.401 283.155 188.514C282.758 188.642 282.361 188.706 281.963 188.706C280.942 188.706 280.091 188.507 279.41 188.11C278.743 187.698 278.218 187.131 277.835 186.407C277.622 186.01 277.48 185.563 277.409 185.067C277.338 184.556 277.303 183.995 277.303 183.385V176.682H278.835V183.385C278.835 183.811 278.87 184.215 278.941 184.598C279.012 184.981 279.105 185.315 279.218 185.599C279.459 186.166 279.807 186.606 280.261 186.918C280.729 187.23 281.296 187.386 281.963 187.386C282.446 187.386 282.907 187.301 283.347 187.131C283.786 186.961 284.184 186.734 284.538 186.45C284.893 186.152 285.191 185.811 285.432 185.428C285.687 185.045 285.872 184.634 285.985 184.194C286.056 183.939 286.106 183.591 286.134 183.151C286.177 182.711 286.198 182.172 286.198 181.534V176.682H287.73V188.386H286.198Z" fill="white"/>
<path d="M274.392 182.534C274.392 181.825 274.271 181.179 274.03 180.598C273.803 180.002 273.491 179.491 273.094 179.065C272.711 178.64 272.257 178.306 271.732 178.065C271.207 177.824 270.654 177.703 270.072 177.703C269.49 177.703 268.937 177.824 268.412 178.065C267.887 178.306 267.426 178.64 267.029 179.065C266.632 179.491 266.319 180.002 266.092 180.598C265.865 181.179 265.752 181.825 265.752 182.534C265.752 183.244 265.865 183.896 266.092 184.492C266.319 185.088 266.632 185.599 267.029 186.024C267.426 186.45 267.887 186.783 268.412 187.024C268.937 187.266 269.49 187.386 270.072 187.386C270.654 187.386 271.207 187.266 271.732 187.024C272.257 186.783 272.711 186.45 273.094 186.024C273.491 185.599 273.803 185.088 274.03 184.492C274.271 183.896 274.392 183.244 274.392 182.534ZM264.22 182.534C264.22 181.626 264.369 180.796 264.667 180.044C264.979 179.292 265.397 178.647 265.922 178.108C266.447 177.569 267.064 177.15 267.774 176.852C268.483 176.54 269.249 176.384 270.072 176.384C270.895 176.384 271.661 176.54 272.37 176.852C273.08 177.15 273.697 177.569 274.222 178.108C274.747 178.647 275.158 179.292 275.456 180.044C275.768 180.796 275.924 181.626 275.924 182.534C275.924 183.442 275.768 184.272 275.456 185.024C275.158 185.776 274.747 186.429 274.222 186.982C273.697 187.521 273.08 187.947 272.37 188.259C271.661 188.557 270.895 188.706 270.072 188.706C269.249 188.706 268.483 188.557 267.774 188.259C267.064 187.947 266.447 187.521 265.922 186.982C265.397 186.429 264.979 185.776 264.667 185.024C264.369 184.272 264.22 183.442 264.22 182.534Z" fill="white"/>
<path d="M258.69 181.491C259.329 181.491 259.91 181.392 260.435 181.194C260.96 180.981 261.407 180.704 261.776 180.364C262.159 180.009 262.45 179.597 262.648 179.129C262.861 178.661 262.968 178.165 262.968 177.64C262.968 177.115 262.861 176.618 262.648 176.15C262.45 175.682 262.159 175.277 261.776 174.937C261.407 174.582 260.96 174.306 260.435 174.107C259.91 173.894 259.329 173.788 258.69 173.788H254.413V181.491H258.69ZM254.413 182.853V188.386H252.838V172.426H258.69C259.57 172.426 260.364 172.568 261.074 172.851C261.797 173.121 262.414 173.497 262.925 173.979C263.436 174.447 263.833 175.001 264.117 175.639C264.4 176.263 264.542 176.93 264.542 177.64C264.542 178.349 264.4 179.023 264.117 179.661C263.833 180.286 263.436 180.839 262.925 181.321C262.414 181.789 261.797 182.165 261.074 182.449C260.364 182.719 259.57 182.853 258.69 182.853H254.413Z" fill="white"/>
<path d="M245.521 181.002H236.626V179.682H245.521V181.002Z" fill="white"/>
<path d="M226.47 176.682V178.81C226.938 178.072 227.569 177.484 228.364 177.044C229.172 176.59 230.052 176.363 231.003 176.363V177.703C230.449 177.703 229.931 177.789 229.449 177.959C228.967 178.115 228.541 178.342 228.172 178.64C227.803 178.924 227.484 179.257 227.215 179.64C226.959 180.023 226.782 180.435 226.683 180.874C226.612 181.13 226.555 181.477 226.512 181.917C226.484 182.357 226.47 182.896 226.47 183.534V188.386H224.938V176.682H226.47Z" fill="white"/>
<path d="M213.864 183.173C213.92 183.783 214.055 184.343 214.268 184.854C214.481 185.365 214.765 185.812 215.119 186.195C215.474 186.563 215.9 186.854 216.396 187.067C216.907 187.28 217.481 187.386 218.12 187.386C219.014 187.386 219.808 187.159 220.503 186.705C221.213 186.237 221.794 185.663 222.248 184.982L223.27 185.79C223 186.202 222.681 186.585 222.312 186.939C221.943 187.294 221.539 187.606 221.099 187.876C220.659 188.131 220.184 188.337 219.673 188.493C219.177 188.635 218.659 188.706 218.12 188.706C217.269 188.706 216.481 188.557 215.758 188.259C215.048 187.947 214.431 187.521 213.906 186.982C213.395 186.429 212.991 185.776 212.693 185.024C212.409 184.272 212.268 183.442 212.268 182.534C212.268 181.626 212.417 180.796 212.714 180.044C213.012 179.292 213.417 178.647 213.927 178.108C214.452 177.555 215.055 177.129 215.736 176.831C216.417 176.519 217.141 176.363 217.907 176.363C218.716 176.363 219.461 176.519 220.142 176.831C220.837 177.129 221.433 177.547 221.929 178.087C222.44 178.611 222.837 179.236 223.121 179.959C223.405 180.683 223.546 181.47 223.546 182.321V183.173H213.864ZM222.014 181.896C221.957 181.286 221.823 180.725 221.61 180.215C221.397 179.704 221.113 179.264 220.759 178.895C220.404 178.512 219.985 178.214 219.503 178.001C219.021 177.789 218.489 177.682 217.907 177.682C217.396 177.682 216.907 177.789 216.439 178.001C215.97 178.2 215.552 178.491 215.183 178.874C214.828 179.243 214.53 179.69 214.289 180.215C214.048 180.725 213.892 181.286 213.821 181.896H222.014Z" fill="white"/>
<path d="M203.964 180.236L201.304 188.386H200.006L196.005 176.682H197.622L200.367 185.173L200.708 186.429L201.027 185.173L203.709 176.682H204.985L207.667 185.173L207.986 186.429L208.327 185.173L211.072 176.682H212.689L208.688 188.386H207.39L204.73 180.236L204.347 178.831L203.964 180.236Z" fill="white"/>
<path d="M186.316 183.173C186.373 183.783 186.507 184.343 186.72 184.854C186.933 185.365 187.217 185.812 187.571 186.195C187.926 186.563 188.352 186.854 188.848 187.067C189.359 187.28 189.934 187.386 190.572 187.386C191.466 187.386 192.26 187.159 192.955 186.705C193.665 186.237 194.246 185.663 194.7 184.982L195.722 185.79C195.452 186.202 195.133 186.585 194.764 186.939C194.395 187.294 193.991 187.606 193.551 187.876C193.112 188.131 192.636 188.337 192.125 188.493C191.629 188.635 191.111 188.706 190.572 188.706C189.721 188.706 188.933 188.557 188.21 188.259C187.5 187.947 186.883 187.521 186.358 186.982C185.848 186.429 185.443 185.776 185.145 185.024C184.862 184.272 184.72 183.442 184.72 182.534C184.72 181.626 184.869 180.796 185.167 180.044C185.465 179.292 185.869 178.647 186.38 178.108C186.905 177.555 187.508 177.129 188.189 176.831C188.87 176.519 189.593 176.363 190.359 176.363C191.168 176.363 191.913 176.519 192.594 176.831C193.289 177.129 193.885 177.547 194.381 178.087C194.892 178.611 195.289 179.236 195.573 179.959C195.857 180.683 195.999 181.47 195.999 182.321V183.173H186.316ZM194.466 181.896C194.41 181.286 194.275 180.725 194.062 180.215C193.849 179.704 193.565 179.264 193.211 178.895C192.856 178.512 192.438 178.214 191.955 178.001C191.473 177.789 190.941 177.682 190.359 177.682C189.848 177.682 189.359 177.789 188.891 178.001C188.423 178.2 188.004 178.491 187.635 178.874C187.281 179.243 186.983 179.69 186.741 180.215C186.5 180.725 186.344 181.286 186.273 181.896H194.466Z" fill="white"/>
<path d="M180.6 176.682V178.81C181.068 178.072 181.699 177.484 182.494 177.044C183.302 176.59 184.182 176.363 185.132 176.363V177.703C184.579 177.703 184.061 177.789 183.579 177.959C183.097 178.115 182.671 178.342 182.302 178.64C181.933 178.924 181.614 179.257 181.344 179.64C181.089 180.023 180.912 180.435 180.812 180.874C180.741 181.13 180.685 181.477 180.642 181.917C180.614 182.357 180.6 182.896 180.6 183.534V188.386H179.067V176.682H180.6Z" fill="white"/>
<path d="M165.984 172.426H171.815C172.553 172.426 173.22 172.532 173.816 172.745C174.412 172.958 174.915 173.249 175.327 173.618C175.752 173.972 176.072 174.391 176.284 174.873C176.511 175.355 176.625 175.873 176.625 176.427C176.625 176.824 176.568 177.186 176.455 177.512C176.341 177.838 176.192 178.129 176.008 178.384C175.837 178.64 175.639 178.867 175.412 179.065C175.199 179.25 174.979 179.406 174.752 179.534C175.078 179.661 175.426 179.832 175.795 180.044C176.164 180.257 176.504 180.534 176.816 180.874C177.128 181.215 177.384 181.626 177.582 182.109C177.795 182.577 177.902 183.123 177.902 183.747C177.902 184.371 177.774 184.967 177.519 185.535C177.263 186.088 176.894 186.578 176.412 187.003C175.944 187.429 175.369 187.769 174.688 188.025C174.021 188.266 173.277 188.386 172.454 188.386H165.984V172.426ZM167.559 180.449V187.024H172.454C173.035 187.024 173.56 186.939 174.029 186.769C174.511 186.585 174.922 186.343 175.263 186.046C175.603 185.748 175.866 185.4 176.05 185.003C176.235 184.606 176.327 184.187 176.327 183.747C176.327 183.307 176.235 182.889 176.05 182.492C175.866 182.08 175.603 181.726 175.263 181.428C174.922 181.13 174.511 180.896 174.029 180.725C173.56 180.541 173.035 180.449 172.454 180.449H167.559ZM167.559 173.788V179.087H171.815C172.312 179.087 172.759 179.016 173.156 178.874C173.553 178.732 173.894 178.54 174.178 178.299C174.461 178.058 174.674 177.781 174.816 177.469C174.972 177.143 175.05 176.795 175.05 176.427C175.05 176.058 174.972 175.717 174.816 175.405C174.674 175.079 174.461 174.795 174.178 174.554C173.894 174.313 173.553 174.128 173.156 174.001C172.759 173.859 172.312 173.788 171.815 173.788H167.559Z" fill="white"/>
<path d="M156.07 182.534C156.07 181.782 155.949 181.108 155.708 180.512C155.481 179.902 155.169 179.392 154.772 178.98C154.374 178.555 153.906 178.235 153.367 178.022C152.828 177.795 152.253 177.682 151.643 177.682C151.033 177.682 150.459 177.803 149.919 178.044C149.38 178.285 148.912 178.618 148.515 179.044C148.118 179.47 147.798 179.98 147.557 180.576C147.33 181.172 147.217 181.825 147.217 182.534C147.217 183.243 147.33 183.896 147.557 184.492C147.798 185.088 148.118 185.598 148.515 186.024C148.912 186.45 149.38 186.783 149.919 187.024C150.459 187.265 151.033 187.386 151.643 187.386C152.253 187.386 152.828 187.265 153.367 187.024C153.906 186.783 154.374 186.45 154.772 186.024C155.169 185.598 155.481 185.088 155.708 184.492C155.949 183.896 156.07 183.243 156.07 182.534ZM145.685 182.534C145.685 181.626 145.834 180.796 146.131 180.044C146.444 179.292 146.862 178.647 147.387 178.108C147.926 177.554 148.557 177.129 149.281 176.831C150.005 176.519 150.792 176.363 151.643 176.363C152.58 176.363 153.438 176.561 154.218 176.958C155.013 177.356 155.637 177.895 156.091 178.576V172H157.623V188.386H156.091V186.301C155.637 187.067 154.999 187.663 154.176 188.088C153.367 188.5 152.523 188.705 151.643 188.705C150.792 188.705 150.005 188.557 149.281 188.259C148.557 187.946 147.926 187.521 147.387 186.982C146.862 186.428 146.444 185.776 146.131 185.024C145.834 184.272 145.685 183.442 145.685 182.534Z" fill="white"/>
<path d="M135.357 183.173C135.414 183.783 135.548 184.343 135.761 184.854C135.974 185.365 136.258 185.812 136.612 186.195C136.967 186.563 137.393 186.854 137.889 187.067C138.4 187.28 138.975 187.386 139.613 187.386C140.507 187.386 141.301 187.159 141.996 186.705C142.706 186.237 143.287 185.663 143.741 184.982L144.763 185.79C144.493 186.202 144.174 186.585 143.805 186.939C143.436 187.294 143.032 187.606 142.592 187.876C142.153 188.131 141.677 188.337 141.166 188.493C140.67 188.635 140.152 188.706 139.613 188.706C138.762 188.706 137.974 188.557 137.251 188.259C136.541 187.947 135.924 187.521 135.399 186.982C134.889 186.429 134.484 185.776 134.186 185.024C133.903 184.272 133.761 183.442 133.761 182.534C133.761 181.626 133.91 180.796 134.208 180.044C134.506 179.292 134.91 178.647 135.421 178.108C135.946 177.555 136.549 177.129 137.23 176.831C137.911 176.519 138.634 176.363 139.4 176.363C140.209 176.363 140.954 176.519 141.635 176.831C142.33 177.129 142.926 177.547 143.422 178.087C143.933 178.611 144.33 179.236 144.614 179.959C144.898 180.683 145.04 181.47 145.04 182.321V183.173H135.357ZM143.507 181.896C143.451 181.286 143.316 180.725 143.103 180.215C142.89 179.704 142.606 179.264 142.252 178.895C141.897 178.512 141.479 178.214 140.996 178.001C140.514 177.789 139.982 177.682 139.4 177.682C138.889 177.682 138.4 177.789 137.932 178.001C137.464 178.2 137.045 178.491 136.676 178.874C136.322 179.243 136.024 179.69 135.782 180.215C135.541 180.725 135.385 181.286 135.314 181.896H143.507Z" fill="white"/>
<path d="M130.827 182.534C130.827 181.782 130.707 181.108 130.466 180.512C130.239 179.902 129.927 179.392 129.529 178.98C129.132 178.555 128.664 178.235 128.125 178.022C127.586 177.795 127.011 177.682 126.401 177.682C125.791 177.682 125.216 177.803 124.677 178.044C124.138 178.285 123.67 178.618 123.273 179.044C122.875 179.47 122.556 179.98 122.315 180.576C122.088 181.172 121.975 181.825 121.975 182.534C121.975 183.243 122.088 183.896 122.315 184.492C122.556 185.088 122.875 185.598 123.273 186.024C123.67 186.45 124.138 186.783 124.677 187.024C125.216 187.265 125.791 187.386 126.401 187.386C127.011 187.386 127.586 187.265 128.125 187.024C128.664 186.783 129.132 186.45 129.529 186.024C129.927 185.598 130.239 185.088 130.466 184.492C130.707 183.896 130.827 183.243 130.827 182.534ZM120.442 182.534C120.442 181.626 120.591 180.796 120.889 180.044C121.201 179.292 121.62 178.647 122.145 178.108C122.684 177.554 123.315 177.129 124.039 176.831C124.762 176.519 125.55 176.363 126.401 176.363C127.337 176.363 128.196 176.561 128.976 176.958C129.771 177.356 130.395 177.895 130.849 178.576V172H132.381V188.386H130.849V186.301C130.395 187.067 129.756 187.663 128.933 188.088C128.125 188.5 127.281 188.705 126.401 188.705C125.55 188.705 124.762 188.557 124.039 188.259C123.315 187.946 122.684 187.521 122.145 186.982C121.62 186.428 121.201 185.776 120.889 185.024C120.591 184.272 120.442 183.442 120.442 182.534Z" fill="white"/>
<path d="M110.36 176.682V178.81C110.587 178.441 110.864 178.108 111.19 177.81C111.517 177.512 111.864 177.257 112.233 177.044C112.602 176.831 112.985 176.668 113.382 176.554C113.794 176.427 114.198 176.363 114.595 176.363C115.617 176.363 116.461 176.569 117.128 176.98C117.809 177.377 118.341 177.938 118.724 178.661C118.937 179.058 119.078 179.512 119.149 180.023C119.22 180.52 119.256 181.073 119.256 181.683V188.386H117.724V181.683C117.724 181.257 117.688 180.853 117.617 180.47C117.546 180.087 117.454 179.754 117.34 179.47C117.099 178.902 116.745 178.463 116.276 178.15C115.822 177.838 115.262 177.682 114.595 177.682C114.113 177.682 113.652 177.767 113.212 177.938C112.772 178.108 112.375 178.342 112.02 178.64C111.666 178.924 111.361 179.257 111.105 179.64C110.85 180.023 110.672 180.435 110.573 180.874C110.502 181.13 110.445 181.477 110.403 181.917C110.375 182.357 110.36 182.896 110.36 183.534V188.386H108.828V176.682H110.36Z" fill="white"/>
<path d="M97.7533 183.173C97.81 183.783 97.9448 184.343 98.1576 184.854C98.3704 185.365 98.6542 185.812 99.0089 186.195C99.3635 186.563 99.7892 186.854 100.286 187.067C100.796 187.28 101.371 187.386 102.009 187.386C102.903 187.386 103.698 187.159 104.393 186.705C105.102 186.237 105.684 185.663 106.138 184.982L107.159 185.79C106.89 186.202 106.571 186.585 106.202 186.939C105.833 187.294 105.429 187.606 104.989 187.876C104.549 188.131 104.074 188.337 103.563 188.493C103.066 188.635 102.549 188.706 102.009 188.706C101.158 188.706 100.371 188.557 99.6473 188.259C98.9379 187.947 98.3208 187.521 97.7959 186.982C97.2851 186.429 96.8808 185.776 96.5828 185.024C96.2991 184.272 96.1572 183.442 96.1572 182.534C96.1572 181.626 96.3062 180.796 96.6041 180.044C96.9021 179.292 97.3064 178.647 97.8171 178.108C98.3421 177.555 98.945 177.129 99.626 176.831C100.307 176.519 101.031 176.363 101.797 176.363C102.605 176.363 103.35 176.519 104.031 176.831C104.726 177.129 105.322 177.547 105.819 178.087C106.329 178.611 106.727 179.236 107.01 179.959C107.294 180.683 107.436 181.47 107.436 182.321V183.173H97.7533ZM105.904 181.896C105.847 181.286 105.712 180.725 105.5 180.215C105.287 179.704 105.003 179.264 104.648 178.895C104.294 178.512 103.875 178.214 103.393 178.001C102.91 177.789 102.378 177.682 101.797 177.682C101.286 177.682 100.796 177.789 100.328 178.001C99.8601 178.2 99.4416 178.491 99.0727 178.874C98.718 179.243 98.4201 179.69 98.1789 180.215C97.9377 180.725 97.7817 181.286 97.7107 181.896H105.904Z" fill="white"/>
<path d="M78.1611 176.682H79.6934V178.619C80.0764 177.952 80.6013 177.406 81.2681 176.98C81.9491 176.554 82.7081 176.349 83.5452 176.363C84.3964 176.391 85.1058 176.639 85.6733 177.108C86.255 177.576 86.6806 178.214 86.9501 179.023C87.1204 178.697 87.3332 178.377 87.5886 178.065C87.8439 177.739 88.149 177.455 88.5036 177.214C88.8583 176.959 89.2627 176.753 89.7167 176.597C90.1706 176.441 90.6814 176.363 91.2489 176.363C91.6319 176.363 91.9937 176.427 92.3342 176.554C92.6889 176.668 93.0081 176.824 93.2918 177.022C93.5756 177.221 93.8239 177.462 94.0367 177.746C94.2637 178.016 94.441 178.306 94.5687 178.619C94.7248 178.987 94.8312 179.448 94.8879 180.002C94.9588 180.555 94.9943 181.194 94.9943 181.917V188.386H93.4621V181.917C93.4621 180.669 93.3628 179.803 93.1642 179.321C92.9655 178.838 92.6747 178.448 92.2916 178.15C91.9086 177.838 91.4333 177.682 90.8658 177.682C90.4828 177.682 90.1281 177.746 89.8018 177.874C89.4755 178.001 89.1775 178.179 88.908 178.406C88.6384 178.619 88.4043 178.874 88.2057 179.172C88.0213 179.47 87.8723 179.782 87.7588 180.108C87.6311 180.477 87.5318 180.959 87.4609 181.555C87.3899 182.151 87.3545 182.882 87.3545 183.747V188.386H85.8223V182.321C85.8223 181.598 85.7939 180.995 85.7371 180.513C85.6804 180.016 85.6023 179.64 85.503 179.385C85.3044 178.874 85.0207 178.462 84.6518 178.15C84.2829 177.838 83.8006 177.682 83.2047 177.682C82.8216 177.682 82.467 177.753 82.1407 177.895C81.8285 178.023 81.5448 178.2 81.2894 178.427C81.0341 178.654 80.8071 178.916 80.6084 179.214C80.424 179.498 80.2679 179.789 80.1403 180.087C79.9842 180.456 79.8707 180.91 79.7998 181.449C79.7288 181.974 79.6934 182.612 79.6934 183.364V188.386H78.1611V176.682Z" fill="white"/>
<path d="M59.4189 176.682H60.9512V178.619C61.3342 177.952 61.8592 177.406 62.526 176.98C63.2069 176.554 63.966 176.349 64.803 176.363C65.6542 176.391 66.3636 176.639 66.9311 177.108C67.5128 177.576 67.9384 178.214 68.208 179.023C68.3782 178.697 68.591 178.377 68.8464 178.065C69.1017 177.739 69.4068 177.455 69.7615 177.214C70.1161 176.959 70.5205 176.753 70.9745 176.597C71.4285 176.441 71.9392 176.363 72.5067 176.363C72.8897 176.363 73.2515 176.427 73.592 176.554C73.9467 176.668 74.2659 176.824 74.5497 177.022C74.8334 177.221 75.0817 177.462 75.2945 177.746C75.5215 178.016 75.6988 178.306 75.8265 178.619C75.9826 178.987 76.089 179.448 76.1457 180.002C76.2167 180.555 76.2521 181.194 76.2521 181.917V188.386H74.7199V181.917C74.7199 180.669 74.6206 179.803 74.422 179.321C74.2234 178.838 73.9325 178.448 73.5495 178.15C73.1664 177.838 72.6911 177.682 72.1236 177.682C71.7406 177.682 71.3859 177.746 71.0596 177.874C70.7333 178.001 70.4354 178.179 70.1658 178.406C69.8962 178.619 69.6621 178.874 69.4635 179.172C69.2791 179.47 69.1301 179.782 69.0166 180.108C68.8889 180.477 68.7896 180.959 68.7187 181.555C68.6478 182.151 68.6123 182.882 68.6123 183.747V188.386H67.0801V182.321C67.0801 181.598 67.0517 180.995 66.9949 180.513C66.9382 180.016 66.8602 179.64 66.7608 179.385C66.5622 178.874 66.2785 178.462 65.9096 178.15C65.5407 177.838 65.0584 177.682 64.4625 177.682C64.0795 177.682 63.7248 177.753 63.3985 177.895C63.0863 178.023 62.8026 178.2 62.5472 178.427C62.2919 178.654 62.0649 178.916 61.8662 179.214C61.6818 179.498 61.5258 179.789 61.3981 180.087C61.242 180.456 61.1285 180.91 61.0576 181.449C60.9866 181.974 60.9512 182.612 60.9512 183.364V188.386H59.4189V176.682Z" fill="white"/>
<path d="M56.5062 182.534C56.5062 181.825 56.3857 181.179 56.1445 180.598C55.9175 180.002 55.6054 179.491 55.2081 179.065C54.8251 178.64 54.3711 178.306 53.8461 178.065C53.3212 177.824 52.7679 177.703 52.1862 177.703C51.6046 177.703 51.0512 177.824 50.5263 178.065C50.0014 178.306 49.5403 178.64 49.1431 179.065C48.7458 179.491 48.4337 180.002 48.2067 180.598C47.9797 181.179 47.8662 181.825 47.8662 182.534C47.8662 183.244 47.9797 183.896 48.2067 184.492C48.4337 185.088 48.7458 185.599 49.1431 186.024C49.5403 186.45 50.0014 186.783 50.5263 187.024C51.0512 187.266 51.6046 187.386 52.1862 187.386C52.7679 187.386 53.3212 187.266 53.8461 187.024C54.3711 186.783 54.8251 186.45 55.2081 186.024C55.6054 185.599 55.9175 185.088 56.1445 184.492C56.3857 183.896 56.5062 183.244 56.5062 182.534ZM46.334 182.534C46.334 181.626 46.483 180.796 46.7809 180.044C47.093 179.292 47.5115 178.647 48.0365 178.108C48.5614 177.569 49.1785 177.15 49.8879 176.852C50.5973 176.54 51.3634 176.384 52.1862 176.384C53.0091 176.384 53.7752 176.54 54.4846 176.852C55.1939 177.15 55.8111 177.569 56.336 178.108C56.8609 178.647 57.2724 179.292 57.5703 180.044C57.8824 180.796 58.0385 181.626 58.0385 182.534C58.0385 183.442 57.8824 184.272 57.5703 185.024C57.2724 185.776 56.8609 186.429 56.336 186.982C55.8111 187.521 55.1939 187.947 54.4846 188.259C53.7752 188.557 53.0091 188.706 52.1862 188.706C51.3634 188.706 50.5973 188.557 49.8879 188.259C49.1785 187.947 48.5614 187.521 48.0365 186.982C47.5115 186.429 47.093 185.776 46.7809 185.024C46.483 184.272 46.334 183.442 46.334 182.534Z" fill="white"/>
<path d="M44.7946 179.704C44.3974 179.065 43.8795 178.576 43.2411 178.235C42.6169 177.881 41.943 177.703 41.2194 177.703C40.6378 177.703 40.0845 177.824 39.5595 178.065C39.0346 178.306 38.5735 178.64 38.1763 179.065C37.779 179.491 37.4669 180.002 37.2399 180.598C37.0129 181.179 36.8994 181.825 36.8994 182.534C36.8994 183.244 37.0129 183.896 37.2399 184.492C37.4669 185.088 37.779 185.599 38.1763 186.024C38.5735 186.45 39.0346 186.783 39.5595 187.024C40.0845 187.266 40.6378 187.386 41.2194 187.386C42.0423 187.386 42.8013 187.166 43.4965 186.727C44.1917 186.287 44.7379 185.663 45.1351 184.854L46.3268 185.684C45.8303 186.62 45.128 187.358 44.22 187.897C43.3262 188.436 42.326 188.706 41.2194 188.706C40.3966 188.706 39.6305 188.557 38.9211 188.259C38.2117 187.947 37.5946 187.521 37.0697 186.982C36.5447 186.429 36.1262 185.776 35.8141 185.024C35.5162 184.272 35.3672 183.442 35.3672 182.534C35.3672 181.626 35.5162 180.796 35.8141 180.044C36.1262 179.292 36.5447 178.647 37.0697 178.108C37.5946 177.569 38.2117 177.15 38.9211 176.852C39.6305 176.54 40.3966 176.384 41.2194 176.384C42.2409 176.384 43.1631 176.611 43.9859 177.065C44.823 177.505 45.504 178.122 46.0289 178.916L44.7946 179.704Z" fill="white"/>
<path d="M25.0365 183.173C25.0932 183.783 25.228 184.343 25.4408 184.854C25.6536 185.365 25.9374 185.812 26.2921 186.195C26.6468 186.563 27.0724 186.854 27.5689 187.067C28.0797 187.28 28.6542 187.386 29.2927 187.386C30.1865 187.386 30.981 187.159 31.6761 186.705C32.3855 186.237 32.9672 185.663 33.4212 184.982L34.4426 185.79C34.1731 186.202 33.8539 186.585 33.485 186.939C33.1161 187.294 32.7118 187.606 32.272 187.876C31.8322 188.131 31.3569 188.337 30.8462 188.493C30.3496 188.635 29.8318 188.706 29.2927 188.706C28.4414 188.706 27.654 188.557 26.9305 188.259C26.2211 187.947 25.604 187.521 25.0791 186.982C24.5683 186.429 24.164 185.776 23.866 185.024C23.5823 184.272 23.4404 183.442 23.4404 182.534C23.4404 181.626 23.5894 180.796 23.8873 180.044C24.1853 179.292 24.5896 178.647 25.1003 178.108C25.6253 177.555 26.2282 177.129 26.9092 176.831C27.5902 176.519 28.3138 176.363 29.0799 176.363C29.8885 176.363 30.6334 176.519 31.3144 176.831C32.0095 177.129 32.6054 177.547 33.102 178.087C33.6127 178.611 34.0099 179.236 34.2937 179.959C34.5774 180.683 34.7193 181.47 34.7193 182.321V183.173H25.0365ZM33.1871 181.896C33.1303 181.286 32.9955 180.725 32.7827 180.215C32.5699 179.704 32.2862 179.264 31.9315 178.895C31.5768 178.512 31.1583 178.214 30.6759 178.001C30.1936 177.789 29.6615 177.682 29.0799 177.682C28.5691 177.682 28.0797 177.789 27.6115 178.001C27.1433 178.2 26.7248 178.491 26.3559 178.874C26.0012 179.243 25.7033 179.69 25.4621 180.215C25.2209 180.725 25.0649 181.286 24.9939 181.896H33.1871Z" fill="white"/>
<path d="M13.0953 182.428V188.386H11.5205V172.426H17.1599C18.0396 172.426 18.8269 172.553 19.5221 172.809C20.2173 173.064 20.8061 173.419 21.2884 173.873C21.785 174.313 22.161 174.838 22.4163 175.448C22.6717 176.058 22.7994 176.717 22.7994 177.427C22.7994 178.165 22.6646 178.846 22.395 179.47C22.1397 180.08 21.7637 180.605 21.2672 181.045C20.8557 181.428 20.3592 181.733 19.7775 181.96L23.757 188.386H21.863L18.2878 182.364C17.919 182.407 17.5359 182.428 17.1387 182.428H13.0953ZM17.1599 181.066C17.7842 181.066 18.3446 180.974 18.8411 180.789C19.3519 180.605 19.7775 180.356 20.118 180.044C20.4727 179.718 20.7422 179.335 20.9267 178.895C21.1253 178.441 21.2246 177.952 21.2246 177.427C21.2246 176.902 21.1253 176.419 20.9267 175.98C20.7422 175.526 20.4727 175.143 20.118 174.831C19.7775 174.504 19.3519 174.249 18.8411 174.064C18.3446 173.88 17.7842 173.788 17.1599 173.788H13.0953V181.066H17.1599Z" fill="white"/>
<path d="M355.156 50.1702C355.059 50.3057 354.953 50.3928 354.837 50.4315C354.721 50.4509 354.614 50.4606 354.517 50.4606C354.421 50.4606 354.304 50.4412 354.169 50.4025C354.033 50.3638 353.927 50.2864 353.849 50.1702L346.329 39.2522V56.8198C346.329 57.1101 346.232 57.3231 346.038 57.4586C345.864 57.6134 345.642 57.6909 345.371 57.6909C345.1 57.6909 344.877 57.6134 344.703 57.4586C344.529 57.3231 344.441 57.1101 344.441 56.8198V37.2776C344.441 36.8518 344.538 36.5324 344.732 36.3194C344.945 36.1065 345.187 36 345.458 36C345.535 36 345.613 36 345.69 36C345.787 36 345.884 36.0194 345.98 36.0581C346.097 36.0968 346.213 36.1839 346.329 36.3194C346.464 36.4356 346.619 36.6098 346.793 36.8421L354.488 47.9634L362.212 36.8421C362.386 36.6098 362.532 36.4356 362.648 36.3194C362.783 36.1839 362.899 36.0968 362.996 36.0581C363.112 36.0194 363.209 36 363.287 36C363.383 36 363.471 36 363.548 36C363.819 36 364.051 36.1065 364.245 36.3194C364.458 36.5324 364.564 36.8518 364.564 37.2776V56.8198C364.564 57.1101 364.477 57.3231 364.303 57.4586C364.129 57.6134 363.906 57.6909 363.635 57.6909C363.364 57.6909 363.132 57.6134 362.938 57.4586C362.764 57.3231 362.677 57.1101 362.677 56.8198V39.2522L355.156 50.1702Z" fill="white"/>
<path d="M331.898 37.9744H324.842C324.61 37.9744 324.407 37.9067 324.232 37.7712C324.077 37.6163 324 37.4034 324 37.1324C324 36.8613 324.077 36.6581 324.232 36.5226C324.407 36.3677 324.61 36.2903 324.842 36.2903H340.813C341.045 36.2903 341.238 36.3677 341.393 36.5226C341.568 36.6581 341.655 36.8613 341.655 37.1324C341.655 37.4034 341.568 37.6163 341.393 37.7712C341.238 37.9067 341.045 37.9744 340.813 37.9744H333.786V57.11C333.786 57.4004 333.689 57.6133 333.495 57.7489C333.321 57.9037 333.098 57.9812 332.827 57.9812C332.556 57.9812 332.334 57.9037 332.159 57.7489C331.985 57.6133 331.898 57.4004 331.898 57.11V37.9744Z" fill="white"/>
</svg>
