<svg width="220" height="292" viewBox="0 0 220 292" fill="none" xmlns="http://www.w3.org/2000/svg">
<path d="M194.685 50.5834H170.249C162.134 20.7067 135.355 0 104.502 0C66.8994 0 36.3076 30.9031 36.3076 68.888C36.3076 106.873 66.8994 137.776 104.502 137.776C137.781 137.776 166.356 113.168 171.759 80.2162H194.684C202.772 80.2162 209.352 73.5694 209.352 65.3996C209.352 57.2298 202.772 50.5834 194.685 50.5834ZM194.685 75.7232H167.906L167.643 77.6664C163.364 109.373 136.219 133.283 104.502 133.283C69.3519 133.283 40.7555 104.396 40.7555 68.888C40.7555 33.3808 69.3519 4.49299 104.502 4.49299C133.911 4.49299 159.359 24.6175 166.388 53.4323L166.851 55.3287L168.774 55.1294C169.116 55.0942 169.466 55.0764 169.814 55.0764H194.685C200.32 55.0764 204.905 59.7075 204.905 65.4C204.905 71.0917 200.32 75.7232 194.685 75.7232Z" fill="white"/>
<path d="M105.42 14.2815C75.5653 14.2815 51.3633 38.7297 51.3633 68.8882C51.3633 99.0467 75.5653 123.495 105.42 123.495C135.275 123.495 159.477 99.0462 159.477 68.8882C159.477 38.7301 135.275 14.2815 105.42 14.2815ZM100.619 25.0384C102.263 25.5025 103.459 27.5825 104.839 28.9405C104.843 28.9405 104.851 28.9422 104.854 28.9422C104.854 28.9422 104.865 28.9405 104.869 28.9405C106.25 27.5825 107.446 25.5025 109.089 25.0384C110.908 24.5243 113.218 29.1194 112.034 31.6348C110.256 35.4154 107.937 38.9741 105.435 43.181C105.275 43.5543 105.116 43.9277 104.953 44.3193C104.919 44.2611 104.888 44.2108 104.854 44.1539C104.821 44.2112 104.789 44.2616 104.755 44.3193C104.593 43.9277 104.433 43.5548 104.273 43.181C101.772 38.9741 99.4521 35.4154 97.6738 31.6348C96.4903 29.1194 98.8004 24.5243 100.619 25.0384ZM98.0746 38.2703C100.62 42.2684 103.065 46.1097 105.345 49.6906C107.513 45.8966 109.886 41.7457 112.625 36.951C116.893 47.2064 106.569 51.4563 105.337 58.9918C98.3767 52.1513 95.0603 43.0703 98.0746 38.2703ZM93.6923 47.9045C97.706 54.7666 101.652 61.5137 105.045 67.3135C108.264 60.859 111.958 53.4525 115.674 46.0008C119.054 51.0955 118.547 60.882 114.549 64.9899C111.569 68.0516 108.341 70.8644 105.414 73.6104C102.006 70.6004 98.4336 67.564 94.9964 64.3782C90.5907 60.2959 90.0202 53.3656 93.6923 47.9045ZM96.9245 71.8464C100.809 74.6367 102.778 78.6278 103.496 83.3288C101.017 77.918 97.1672 74.1275 91.0379 72.7512C94.5432 76.5157 98.0489 80.2798 101.554 84.0443C90.8351 79.1371 83.3179 71.8295 83.3417 58.9922C85.7986 65.649 91.8493 68.2009 96.9245 71.8464ZM75.8861 68.3711C77.2007 70.3599 78.1919 71.7965 79.1192 73.2739C82.5824 78.7898 87.6481 81.6947 93.862 83.1721C100.344 84.7137 103.886 88.9158 104.485 95.8231C102.42 90.5461 98.5499 89.1229 94.4642 87.9169C90.6259 86.7842 86.8418 85.4631 82.7708 84.1389C85.0592 88.5134 88.9123 90.3941 93.1465 91.8654C95.6789 92.7454 98.4583 93.4627 100.498 95.0686C102.536 96.6727 103.791 99.292 104.854 101.974C101.365 96.6285 95.8865 95.4541 90.4383 94.024C78.31 90.8395 72.0144 80.0189 75.8861 68.3711ZM103.639 115.263C100.069 112.97 96.72 110.229 92.936 108.401C88.4595 106.238 83.4707 105.168 78.9647 103.056C70.197 98.9477 65.0485 88.2685 67.5253 78.8519C67.6147 78.5128 67.992 77.1648 68.6076 76.4436C70.7571 88.0875 78.7697 92.7255 88.8858 95.1077C94.2436 96.3697 99.113 98.7706 102.58 103.317C103.601 104.655 104.24 106.292 104.28 108.406C103.458 107.523 102.776 106.412 101.791 105.798C98.2886 103.612 95.1228 100.226 91.0804 99.6006C86.0339 98.82 79.7418 96.2764 75.2853 92.9408C77.0158 95.9317 77.1312 96.4778 80.7907 100.038C83.7668 102.934 87.1635 102.635 91.1612 103.841C97.0157 105.607 102.486 107.717 104.869 114.151C105.04 114.615 105.66 114.909 105.697 116.11C105.008 115.833 104.255 115.659 103.639 115.263ZM111.594 70.9981C116.261 66.4113 122.109 62.7971 123.593 55.5216C125.651 68.7814 119.041 77.5468 108.742 84.3486C111.768 79.8925 114.794 75.4368 117.82 70.9812C111.705 73.3937 108.327 77.9323 106.622 83.9231C106.619 78.9504 108.022 74.5086 111.594 70.9981ZM117.126 85.0732C111.211 86.7763 111.672 87.5374 108.254 92.3855C108.17 92.3404 108.083 92.3039 107.994 92.2731C109.108 90.0203 110.199 87.7471 111.792 85.9189C114.157 83.205 117.53 81.4172 120.253 78.9856C124.506 75.1881 128.583 71.1879 132.543 67.4542C134.727 71.856 133.3 80.5294 128.086 85.2021C124.218 88.6688 119.454 91.1261 115.04 93.9567C112.576 95.5366 110.062 97.0062 107.626 98.4623C107.753 97.4047 108.03 96.394 108.741 95.4988C111.311 92.8666 112.786 89.9218 115.547 88.7626C118.587 87.4866 122.104 84.1168 124.391 81.7437C124.092 81.4676 120.443 83.9366 117.126 85.0732ZM143.423 87.8448C141.875 94.4855 137.302 98.7072 131.582 101.646C128.113 103.427 124.348 104.642 120.669 105.979C116.797 107.385 112.869 108.634 107.945 110.295C115.267 102.314 127.034 103.696 133.373 95.2757C124.621 98.9494 116.224 102.474 107.923 105.959C108.568 103.268 110.877 101.016 113.919 99.4856C117.789 97.5367 121.789 95.8552 125.676 93.9389C133.564 90.049 139.074 84.3004 139.713 73.7584C144.043 78.4828 144.548 83.0179 143.423 87.8448Z" fill="white"/>
<path d="M4 164L216 164" stroke="white" stroke-width="8" stroke-linecap="round"/>
<path d="M76.4742 290.633C73.807 290.633 72.4733 289.325 72.4733 286.707L71.0064 200.729C70.9174 197.676 71.7621 195.451 73.5403 194.055C75.3184 192.66 77.5856 191.831 80.3418 191.569C91.0108 190.697 100.435 190.827 108.615 191.962C116.883 193.008 123.818 195.015 129.419 197.981C135.021 200.86 139.244 204.655 142.089 209.367C145.023 213.99 146.49 219.399 146.49 225.594C146.49 232.137 144.845 237.808 141.555 242.606C138.266 247.404 133.687 251.199 127.819 253.991C130.397 258.441 133.331 262.148 136.621 265.115C140 268.081 143.823 270.611 148.09 272.705C149.78 273.577 150.713 274.624 150.891 275.846C151.158 277.067 150.935 278.157 150.224 279.117L142.756 289.717C141.778 291.113 140.711 291.855 139.555 291.942C138.488 292.116 137.377 291.898 136.221 291.288C129.731 288.06 124.174 283.697 119.551 278.201C114.927 272.705 111.371 266.249 108.881 258.833C104.436 259.357 99.5016 259.4 94.0782 258.964L93.5447 286.707C93.5447 289.325 92.2111 290.633 89.5438 290.633H76.4742ZM93.5447 240.905C98.168 241.341 102.347 241.428 106.081 241.167C109.904 240.818 113.149 240.076 115.816 238.942C118.484 237.808 120.529 236.281 121.951 234.362C123.463 232.442 124.218 230.043 124.218 227.164C124.218 224.285 123.507 221.886 122.084 219.967C120.662 217.96 118.617 216.39 115.95 215.255C113.282 214.121 110.082 213.38 106.348 213.031C102.613 212.682 98.4347 212.769 93.8115 213.292L93.5447 240.905Z" fill="white"/>
</svg>
